<svg width="96" height="96" viewBox="0 0 96 96" fill="none" xmlns="http://www.w3.org/2000/svg">
<g clip-path="url(#clip0_22660_2185)">
<path d="M48 96C74.5097 96 96 74.5097 96 48C96 21.4903 74.5097 0 48 0C21.4903 0 0 21.4903 0 48C0 74.5097 21.4903 96 48 96Z" fill="#988430"/>
<path d="M47.9998 94.4623C73.6603 94.4623 94.4623 73.6603 94.4623 47.9998C94.4623 22.3393 73.6603 1.53735 47.9998 1.53735C22.3393 1.53735 1.53735 22.3393 1.53735 47.9998C1.53735 73.6603 22.3393 94.4623 47.9998 94.4623Z" fill="#7A6A2A"/>
<path d="M48.0001 93.4836C73.12 93.4836 93.4836 73.12 93.4836 48.0001C93.4836 22.8803 73.12 2.5166 48.0001 2.5166C22.8803 2.5166 2.5166 22.8803 2.5166 48.0001C2.5166 73.12 22.8803 93.4836 48.0001 93.4836Z" fill="#BA9F33"/>
<path fill-rule="evenodd" clip-rule="evenodd" d="M20.9861 42.8741C20.7142 42.6258 20.427 42.377 20.1628 42.1287C19.8986 41.8803 19.6272 41.6315 19.3554 41.3832L18.5474 40.6152C18.4153 40.4831 18.2756 40.3669 18.1435 40.2343C18.0114 40.118 17.8562 39.9859 17.7241 39.8692C16.652 38.8519 15.5737 37.8345 14.5165 36.8167C15.6116 37.8186 16.6838 38.8134 17.7789 39.8303L18.1593 40.2112C18.2914 40.3428 18.4312 40.4595 18.5633 40.5916L19.3707 41.3371C19.6426 41.5854 19.9068 41.8342 20.1787 42.1051C20.4505 42.3759 20.7147 42.6253 20.9866 42.8731L20.9861 42.8741ZM6.7571 42.7205C6.7571 42.7205 10.656 43.124 12.5591 43.3959C14.3219 43.6447 19.8367 44.491 19.8367 44.491L6.7571 42.7205ZM6.7571 42.7205C7.85227 42.8137 8.94744 42.9299 10.0426 43.0467C10.6017 43.1009 11.1378 43.1629 11.6738 43.2172L12.4966 43.3109C12.7685 43.3493 13.0327 43.3882 13.3046 43.4271L16.567 43.9473L18.1977 44.2191C18.7338 44.3123 19.2699 44.4137 19.829 44.5069C19.2929 44.4526 18.7338 44.3748 18.1977 44.297L16.567 44.064L13.3046 43.5827C13.0327 43.5438 12.7685 43.489 12.4966 43.4506L11.6733 43.3559C11.1373 43.3016 10.5782 43.2238 10.0421 43.1614C8.94693 43.0298 7.85176 42.8895 6.75659 42.719L6.7571 42.7205ZM19.4486 45.5068C19.4486 45.5068 15.2855 46.5636 13.8795 46.9676C12.4971 47.348 8.31051 48.6218 8.31051 48.6218L19.448 45.5073L19.4486 45.5068Z" fill="#CFB66C"/>
<path fill-rule="evenodd" clip-rule="evenodd" d="M19.4486 45.5068C18.5244 45.7787 17.6054 46.0429 16.6679 46.2917L13.8872 47.0372C12.9631 47.3091 12.044 47.5733 11.1224 47.8451L9.74005 48.2256C9.28181 48.3577 8.81589 48.4739 8.34229 48.6065C8.80001 48.4529 9.26645 48.2957 9.72469 48.1636L11.1071 47.7212C12.0312 47.4335 12.9503 47.1616 13.8719 46.8744C14.8114 46.6414 15.7361 46.3926 16.6756 46.1673C17.5685 45.942 18.5086 45.7173 19.4486 45.5073V45.5068ZM8.89371 51.1849C9.35144 51.0139 14.6332 48.5522 15.8605 47.9772C16.4749 47.6895 18.2607 47.0556 18.2607 47.0556L8.89371 51.1849Z" fill="#CFB66C"/>
<path fill-rule="evenodd" clip-rule="evenodd" d="M8.89358 51.1844C9.29703 51.0308 9.67796 50.8429 10.0661 50.6642L11.2155 50.1281L13.5226 49.0176C14.2906 48.6525 15.0371 48.2496 15.8291 47.9065C16.2331 47.7361 16.6371 47.5963 17.0405 47.4642L17.6549 47.2701C17.8643 47.2159 18.0589 47.1534 18.2693 47.0991C17.5013 47.4642 16.6929 47.775 15.9239 48.1318C15.1559 48.5128 14.3704 48.8235 13.5779 49.165L11.2324 50.1977C10.4449 50.5167 9.67694 50.8582 8.89307 51.1844H8.89358ZM9.40558 53.3348C9.40558 53.3348 14.1897 50.5311 15.8363 49.6299C16.6985 49.1487 19.4869 47.7657 19.4869 47.7657L9.40558 53.3348Z" fill="#CFB66C"/>
<path fill-rule="evenodd" clip-rule="evenodd" d="M9.40576 53.3361C10.2132 52.8389 11.0365 52.3341 11.8598 51.8216L13.0886 51.0756C13.5079 50.8273 13.9119 50.5943 14.3394 50.346C14.7587 50.0972 15.1627 49.8489 15.5897 49.6159C15.793 49.4904 16.006 49.3813 16.2266 49.2898L16.8789 48.9636C17.7411 48.5443 18.6033 48.1168 19.5121 47.7517C18.6888 48.2724 17.842 48.7153 16.9956 49.173C16.5763 49.406 16.1488 49.6159 15.7295 49.8489C15.3101 50.0818 14.9062 50.3307 14.4787 50.5559C14.0593 50.8043 13.6554 51.0372 13.2284 51.2625L11.9622 51.9537L9.40679 53.3361H9.40576ZM19.4481 48.3804C19.4481 48.3804 16.4734 50.664 15.5103 51.3941C14.5473 52.1242 11.7123 54.1747 11.7123 54.1747L19.4481 48.3804Z" fill="#CFB66C"/>
<path fill-rule="evenodd" clip-rule="evenodd" d="M36.5202 66.7958L34.998 63.9143L35.8833 60.3103L42.1978 57.8717L39.5103 52.3574L40.8384 46.7884L43.3319 41.8015L51.037 40.5902L56.6987 35.1921L68.9242 36.1163L71.3239 49.1882L66.7026 65.6464L64.0699 74.1671L53.3978 74.5711L48.4427 71.1381L42.6407 68.7143L36.5202 66.7958Z" fill="#E2CC85"/>
<path fill-rule="evenodd" clip-rule="evenodd" d="M55.239 66.7028C55.239 66.7028 53.7629 67.3787 51.2454 67.223C50.5169 66.2446 45.4143 65.7863 45.4143 65.7863C45.4143 65.7863 44.7773 65.5923 43.6509 66.0582C42.5174 66.519 41.4452 66.4622 40.4433 66.7105C39.4413 66.9588 38.4465 65.6543 37.6785 65.3824C36.9105 65.0951 35.8921 64.4039 35.8921 64.4039L33.7417 64.194L29.4235 62.3687L22.5632 55.5341L20.699 58.4525L20.124 62.0641L22.1981 66.3439L27.7825 71.4311L38.6717 74.1959L45.126 72.2944L53.2115 68.8768L55.239 66.7023V66.7028Z" fill="#F1D789"/>
<path fill-rule="evenodd" clip-rule="evenodd" d="M16.5512 42.5479L17.9336 38.3618L19.5807 35.6585L24.885 35.2156L23.2927 39.8604L18.8583 47.7519L20.6989 54.7965L17.4369 56.4272L16.4344 54.8897L15.627 51.3635L15.5728 47.4022L16.5512 42.5479Z" fill="#F4ECB4"/>
<path fill-rule="evenodd" clip-rule="evenodd" d="M22.5008 66.4157L21.4834 64.9944C21.4834 64.9944 21.2115 64.3186 21.3672 63.7282C21.5208 63.1302 21.4988 63.0913 21.4215 62.866C21.3441 62.6407 20.6913 61.864 20.7303 61.1959C20.7687 60.52 20.676 60.2948 21.1726 59.7592C21.6928 59.239 21.5377 58.3379 21.5377 58.3379L22.2135 58.7572L22.3671 58.5243C22.3671 58.5243 22.6154 58.7183 22.6154 59.0214C22.6697 58.6021 22.4444 56.6601 22.9569 56.2177C23.4695 55.7753 24.3783 58.2913 24.3783 58.2913L23.8192 54.6407L22.382 50.8975L19.8266 47.4799L19.673 43.7126V43.3865C19.673 43.3865 18.5 45.1887 18.1738 46.6121C17.9409 47.5905 18.5 48.7789 18.3838 50.1848C18.2901 51.5831 18.1738 51.474 18.5153 52.028C18.8569 52.582 19.6883 53.7212 19.3622 54.5445C19.075 55.2516 18.096 54.7544 18.096 54.7544C18.096 54.7544 17.902 55.3289 17.6378 55.5388C17.5446 55.1973 17.4437 54.9797 17.2574 54.7708C17.2415 54.9029 17.2031 55.0816 17.2031 55.0816C17.2031 55.0816 17.0321 54.5455 16.8611 53.8697C16.6286 52.9691 16.3798 51.7807 16.1545 51.1438C16.0613 51.5088 15.8284 52.6194 15.8284 52.6194L15.9605 54.3284L16.5974 56.6739L17.2118 58.2099L17.8098 60.0895L18.3295 61.352L18.7488 62.3151L19.1139 64.4824L20.8767 66.3461L21.8167 66.7659L22.4997 66.4162L22.5008 66.4157Z" fill="#F3E19D"/>
<path fill-rule="evenodd" clip-rule="evenodd" d="M17.476 39.1301C17.476 39.1301 16.2099 41.2805 15.8453 43.4483C15.4808 45.6162 15.1541 47.9068 15.3845 50.858C15.6175 53.8332 16.0603 55.658 16.4177 56.9631C17.0321 59.1304 18.6234 62.144 18.6234 62.144L18.6777 62.0273C18.4102 61.5203 18.1967 60.9866 18.0408 60.435C17.8308 59.6117 17.753 58.6332 17.559 58.1904C17.388 57.748 17.1007 57.3671 16.961 56.8233C16.8289 56.3031 16.8074 55.4798 16.4019 54.8665C16.2308 54.6176 16.0209 53.9653 15.959 53.3131C15.8811 52.3341 15.9979 51.2389 15.9047 50.3383C15.7337 48.8392 15.6175 47.8219 15.7726 47.037C15.9277 46.2521 16.7362 44.0238 17.2333 42.2528C17.5595 41.1187 17.3649 40.1634 17.9629 39.1767C18.561 38.1983 18.9265 37.3361 19.0581 36.7381C19.2117 36.1943 17.474 39.1301 17.474 39.1301H17.476Z" fill="#F2E8B0"/>
<path fill-rule="evenodd" clip-rule="evenodd" d="M23.4796 38.2676C23.4796 38.2676 22.8273 38.4621 22.5165 38.8036C22.2058 39.1298 22.0737 39.4017 21.6543 39.9531C21.235 40.5045 21.2115 40.9551 20.8694 41.6463C20.5279 42.3221 19.7743 43.3394 19.6811 43.7045C19.5879 44.0696 19.4328 45.7781 19.2387 46.586C19.0677 47.394 19.4328 48.3883 19.4328 48.3883L19.8751 48.2946C19.8751 48.2946 19.8751 48.8696 20.318 49.2582C20.7604 49.6386 20.8382 47.9684 20.8382 47.9684L22.4925 42.3841L24.9854 40.6909L25.2573 39.3238L23.4786 38.2676H23.4796Z" fill="#F5EEC0"/>
<path fill-rule="evenodd" clip-rule="evenodd" d="M24.6911 40.8C24.6911 40.8 23.5181 40.8774 22.9436 41.2972C22.7107 41.4677 22.6175 41.6075 22.3692 41.8174C21.9109 42.1978 21.4445 42.5475 21.2197 43.0462C20.9709 43.5428 20.699 44.2965 20.5127 45.7178C20.4349 46.3158 20.4348 46.8672 20.3806 47.349C20.3028 48.0013 20.1865 48.5215 20.2485 48.885C20.3263 49.6305 21.0953 50.0191 21.1701 50.8654L22.7624 50.058L24.2615 44.147L27.4462 42.1502L25.6439 40.1309L24.6891 40.7965L24.6911 40.8Z" fill="#E6DB9D"/>
<path fill-rule="evenodd" clip-rule="evenodd" d="M16.291 80.6038C16.2977 80.5454 16.3044 80.4871 16.311 80.4272C16.5435 78.4304 16.5829 76.9169 16.7534 75.9692C17.0017 74.6257 17.1727 74.126 17.1338 73.6232C17.0795 72.8158 17.0176 72.2254 17.0954 71.6039C17.2116 70.7806 18.0196 69.8021 17.9965 69.1263C17.9806 68.5902 17.7088 68.241 17.4758 67.9149C17.2428 67.5888 17.0565 67.3169 17.0565 67.3169C17.0565 67.3169 18.6488 66.2217 18.6334 61.8098C18.666 61.819 18.6972 61.832 18.7266 61.8487L19.511 64.0775L20.0471 64.7298L22.1053 68.5667L24.7539 71.1379L28.6681 73.7706L31.1227 76.4418L31.371 83.5642L28.1633 87.7273L27.638 88.6786C23.4645 86.5834 19.6375 83.8599 16.2905 80.6033L16.291 80.6038Z" fill="#E5CB7A"/>
<path fill-rule="evenodd" clip-rule="evenodd" d="M26.0896 87.4173C26.0896 87.4173 26.1439 86.532 26.874 85.9571C26.9907 86.1511 27.068 86.338 27.045 86.4773C27.1771 86.2448 28.1012 84.7534 30.1907 84.3647C32.2802 83.9843 32.785 82.4622 32.785 82.4622L37.2195 78.4312L42.2913 73.7633L48.4584 71.596L51.3404 70.8889C51.3404 70.8889 51.3947 71.0988 51.2861 71.5648C51.8217 71.5264 53.01 71.2545 54.245 70.8193C54.7421 70.6252 55.2086 70.5474 55.4569 70.8039C55.822 71.1454 55.8762 71.9534 55.8993 72.4346C56.4973 72.3025 57.1885 71.7281 57.7425 71.7824C58.6282 71.8755 59.4126 72.9164 60.3137 72.9164C61.5021 72.9164 62.0376 72.1863 62.8691 71.6113C63.3663 71.2698 64.0805 70.8433 64.4845 70.5551C65.4475 69.848 75.6379 66.7335 75.6379 66.7335L79.2106 66.9665L79.7856 70.8034L79.4784 80.8335C79.4405 80.8698 79.4026 80.9077 79.3642 80.9441L63.1195 89.4284L40.6017 92.8803C35.5577 92.0562 30.6901 90.3819 26.2063 87.9288L26.0911 87.4168L26.0896 87.4173Z" fill="#D8C173"/>
<path fill-rule="evenodd" clip-rule="evenodd" d="M17.6565 81.8797C17.9765 81.2105 18.2642 80.6509 18.3149 80.4507C18.3549 80.8541 18.4281 81.7394 18.5755 82.6804C18.2659 82.4173 17.9596 82.1502 17.6565 81.8792V81.8797Z" fill="#F1D789"/>
<path fill-rule="evenodd" clip-rule="evenodd" d="M34.1051 91.3188L37.0174 90.5088L37.2657 90.5866C37.2657 90.5866 37.3978 90.6645 37.3978 90.9281C37.7629 90.7187 38.0737 90.7571 38.2989 90.6179C38.4152 90.8662 38.5314 91.6895 39.0444 91.7903C39.58 91.9071 40.1549 91.5574 40.7376 91.115C41.3121 90.6568 41.9664 90.0818 42.4615 89.8488C42.6432 90.1829 42.8041 90.5277 42.9433 90.8815C43.5956 90.3614 44.7297 88.2488 46.345 88.2872C46.8119 87.1839 47.5919 86.2416 48.5886 85.5767C50.0877 84.5594 51.0273 84.4815 52.2002 84.5747C52.6661 83.9695 53.2402 83.456 53.8934 83.0602C54.0875 83.1381 54.6235 83.4642 55.2917 83.1534C55.9675 82.8431 56.7284 81.6389 57.7304 81.4838C58.2703 81.4095 58.8193 81.5247 59.2838 81.8099C59.2838 81.8099 62.2022 78.9125 64.2159 77.9494C64.138 77.7165 63.9829 76.8389 66.3437 74.8969C66.4758 75.0136 66.3826 75.3398 66.4758 75.3577C66.5142 75.3577 67.0902 75.1094 67.8193 74.5498C68.7204 73.8744 69.7997 73.1674 70.452 72.9733C71.6808 72.6083 72.9844 73.3537 72.9844 73.3537C73.0952 73.276 73.2188 73.2181 73.3494 73.1827C73.6597 73.1285 73.885 73.0895 74.056 73.0291C74.0406 73.4331 74.2659 74.1243 74.056 74.7223C74.2992 74.8591 74.5567 74.9685 74.824 75.0485C74.6924 75.3357 74.4047 76.0658 73.9234 76.4155C74.3268 76.6095 74.3811 76.8348 74.9561 77.0299C74.7231 77.356 74.3417 77.9157 74.1717 78.2587C74.0007 78.6238 73.3868 80.1383 73.1149 80.7127C72.8277 81.2877 72.4396 82.3439 72.2527 82.5559C72.0658 82.7679 71.3905 83.6664 70.8703 84.1088C71.3311 83.9378 73.2163 83.3633 74.0161 83.1457C73.778 83.4949 72.5712 85.2854 71.411 87.0072C65.856 90.3367 59.6553 92.4441 53.2219 93.1889C46.7885 93.9336 40.2703 93.2987 34.1016 91.3265L34.1051 91.3188Z" fill="#E0CD81"/>
<path fill-rule="evenodd" clip-rule="evenodd" d="M24.8834 40.5906C24.8834 40.5906 24.2081 40.5906 24.076 40.6838C23.9439 40.777 24.7519 40.9715 25.0002 41.0647C25.2485 41.1579 25.7846 41.5849 25.9243 41.9269C26.0564 42.2531 30.7786 44.1556 30.7786 44.1556L34.1184 43.9846L35.2699 42.3939L33.0795 40.4754L34.6155 35.9473L32.5808 36.2734L27.6877 39.1918L25.2331 40.1318L24.8834 40.5906Z" fill="#DFC57C"/>
<path fill-rule="evenodd" clip-rule="evenodd" d="M32.2178 42.0897C32.266 42.1679 32.334 42.232 32.4149 42.2756C32.4958 42.3192 32.5867 42.3407 32.6786 42.338C33.3698 42.338 34.0062 42.509 34.2704 42.8582C34.7132 43.4178 35.9405 45.2042 35.9405 45.2042L38.8763 46.2605L39.0658 42.8034L35.8581 40.5747L32.2075 41.9182V42.0892H32.2157L32.2178 42.0897Z" fill="#E5CC7C"/>
<path fill-rule="evenodd" clip-rule="evenodd" d="M31.6414 43.3712C31.6414 43.3712 32.177 43.4101 32.8528 43.1613C33.5287 42.9124 34.6392 42.3769 35.121 42.5868C35.7963 42.874 35.6566 43.7752 36.3872 44.5836C36.8295 45.0808 37.6375 45.0654 38.0957 45.6015C38.554 46.1375 40.1304 45.8887 40.1304 45.8887L40.7284 49.1143L38.3287 52.1904L37.5438 56.0114H34.2987L31.3342 54.8354L29.874 51.3026L30.6041 47.7298L31.6414 43.3712Z" fill="#D2C281"/>
<path fill-rule="evenodd" clip-rule="evenodd" d="M37.919 43.5262C37.9995 43.551 38.0831 43.5641 38.1673 43.5651C38.0741 43.6429 37.8796 43.8134 37.9574 44.2563C38.0352 44.6992 38.2835 45.2583 38.0741 45.5998C38.2413 45.7826 38.3659 46.0001 38.4392 46.2367C38.5713 46.6176 38.6102 46.9668 39.4719 47.0216C39.3475 47.0982 39.2328 47.1894 39.1304 47.2935C39.1304 47.2935 39.7284 47.8137 40.0315 48.295C40.3418 48.2816 41.1651 48.0256 41.1651 48.0256L41.3361 48.1424L41.7011 47.9888C41.7011 47.9888 41.3596 47.8567 41.6079 47.0257C41.8409 46.2956 42.0508 46.3345 42.0687 46.2802C42.0867 46.226 42.2397 45.4569 42.2397 45.1462C42.356 44.7427 42.4492 43.5154 42.4492 43.5154L42.2008 40.8049L40.8031 39.9581L39.6664 38.8608L38.5943 40.8802L37.8883 41.5842L37.834 43.3316L37.919 43.5262Z" fill="#E2C270"/>
<path fill-rule="evenodd" clip-rule="evenodd" d="M41.2815 41.2582C41.2815 41.2582 41.5298 41.9647 41.6235 42.5085C41.6565 42.4028 41.6748 42.293 41.6778 42.1823C41.6778 42.1823 41.8718 43.2544 41.9102 43.6973C41.9881 43.6815 42.0638 43.6584 42.0812 43.7357C42.0986 43.813 42.2758 44.6758 42.2348 45.157C42.5583 44.6234 43.0058 44.1759 43.5394 43.8525C43.8502 43.6579 44.2153 43.4485 44.5962 43.4326C45.1942 43.4173 45.6289 43.8135 46.3436 43.8135C48.0675 43.8135 49.6291 42.5474 50.7786 42.1593C51.6249 41.8715 52.355 41.6621 52.8675 41.1957C53.1164 40.9863 53.5593 40.5204 53.9627 39.8287C54.4988 38.9071 55.0579 38.1047 55.6175 38.0039C55.3643 38.0504 55.1067 38.0686 54.8495 38.0582C54.8495 38.0582 55.0205 37.8871 55.3103 37.6542C55.6001 37.4212 55.9472 37.134 56.4439 37.134C57.3296 37.134 57.772 37.2656 58.2691 37.2656C58.7663 37.2502 59.0535 37.134 59.0535 37.134C59.0535 37.134 59.5742 37.4991 60.7467 37.4991C61.9197 37.5144 62.7041 37.6153 63.318 37.6701C63.9319 37.7248 65.9896 37.4991 66.5799 37.5165C66.9648 37.5313 67.3427 37.6238 67.691 37.7883L65.7879 32.2587L58.9516 26.2837L54.8818 29.1652L48.621 35.4255L42.563 37.6701L41.2969 39.0914V41.2582H41.2815Z" fill="#CCB360"/>
<path fill-rule="evenodd" clip-rule="evenodd" d="M54.874 38.089C54.874 38.089 55.045 37.9185 55.3318 37.6855C55.6185 37.4526 55.9692 37.1648 56.4658 37.1648C57.3511 37.1648 57.794 37.2969 58.2911 37.2969C58.7883 37.2816 59.0755 37.1648 59.0755 37.1648C59.0755 37.1648 59.5967 37.5294 60.7687 37.5294C61.9417 37.5447 62.7261 37.6456 63.34 37.6999C63.9538 37.7541 66.0116 37.5294 66.6019 37.5463C66.9867 37.5608 67.3645 37.6533 67.7124 37.8181L66.8502 35.3247L65.8488 33.4221L62.9903 30.2917C62.9903 30.2917 59.5599 28.2724 59.5337 28.2571C59.5184 28.2417 58.3454 27.9309 58.3454 27.9309L55.2386 29.8105L52.4195 37.1039L52.3652 38.6399L54.19 39.5021C54.6482 38.7341 55.1536 38.1197 55.6272 38.0419C55.1997 38.0885 54.8735 38.0885 54.8735 38.0885L54.874 38.089Z" fill="#D5B457"/>
<path fill-rule="evenodd" clip-rule="evenodd" d="M54.8351 38.6098C54.5632 38.6252 54.3385 38.5709 54.276 38.3769C54.043 37.7246 53.8567 37.6314 53.6616 37.6314C53.4665 37.6314 53.2034 38.0507 53.0472 38.0891C52.891 38.1275 52.7057 37.6079 52.7057 37.6079L52.5347 37.53C52.5347 37.53 51.5327 38.1823 50.8262 38.9513C50.1196 39.7204 48.962 41.0255 48.4418 41.2579C47.9216 41.4904 46.1347 41.5687 45.5234 41.7008C44.912 41.8329 44.2342 42.2758 44.141 42.3766C44.0478 42.4775 44.4134 42.586 44.4676 42.6869C44.5219 42.7801 43.8691 42.7412 43.8148 42.8405C43.7764 42.9183 43.9684 43.3607 44.0637 43.586C44.2303 43.5031 44.4132 43.458 44.5992 43.4539C45.1972 43.4385 45.6324 43.8348 46.3467 43.8348C48.0711 43.8348 49.6322 42.5686 50.7816 42.18C51.6285 41.8928 52.3586 41.6829 52.8711 41.2169C53.1194 41.0075 53.5623 40.5411 53.9663 39.8499C54.2612 39.3763 54.5489 38.9334 54.8367 38.6073L54.8351 38.6098Z" fill="#D2B257"/>
<path fill-rule="evenodd" clip-rule="evenodd" d="M30.1056 77.0487C30.1056 77.0487 29.952 76.4738 28.5287 74.9905C28.1247 74.5712 27.8764 74.2225 27.6045 73.9732C26.9287 73.3357 26.5324 73.1652 26.0511 72.8002C24.9948 72.0158 23.8454 72.0158 22.9601 71.0527C22.0749 70.0896 21.0432 68.2495 20.3264 66.3689C19.6199 64.4894 19.4253 63.8914 19.4253 63.8371C19.4253 63.7828 19.6199 63.4178 19.8682 63.472C20.1165 63.5263 20.1165 64.0076 20.179 64.1243C20.3027 64.3149 20.443 64.4941 20.5983 64.6599C20.9633 65.0797 21.4835 65.5815 21.7477 66.33C21.6935 65.6931 21.4759 64.9865 21.4759 64.9865C21.4759 64.9865 22.8429 65.8487 24.0077 66.7494C25.1807 67.6505 25.662 67.9613 26.0045 68.5357C26.347 69.1102 27.1539 70.6252 27.5405 71.0681C27.9271 71.511 33.2237 73.1806 33.2237 73.1806L35.7432 75.0591L36.9941 77.8009L36.0151 79.3369L34.1356 79.7408L31.083 78.3738L30.1056 77.0482V77.0487Z" fill="#D2B159"/>
<path fill-rule="evenodd" clip-rule="evenodd" d="M23.324 67.6037C23.324 67.6037 23.9609 68.6211 25.5143 69.5841C26.9126 70.431 29.126 71.2 31.0992 71.6583C32.2328 71.9301 33.3669 72.1395 34.3842 72.1554C37.126 72.1938 39.0132 71.4099 41.3515 71.1534C42.6177 71.0213 44.1711 70.9205 45.7864 70.539C47.86 70.0419 49.0873 69.4823 50.7574 68.6958C51.9688 68.1367 53.0799 67.7174 53.9805 67.1813C55.2467 66.4359 56.1708 65.6049 57.243 65.3566C57.1109 65.7216 56.9711 66.3739 55.9148 67.0497C56.4739 67.0339 57.243 66.9955 57.243 66.9955C57.243 66.9955 56.4975 67.4378 55.1847 68.4321C54.3768 69.0465 53.3052 70.0864 52.21 70.7776C51.5029 71.2205 50.7339 71.5456 50.2291 71.8108C49.0003 72.4867 48.5046 72.8282 47.6972 73.654C47.9845 73.6387 48.008 73.654 48.008 73.654C48.008 73.654 46.9902 73.7861 46.2605 74.1742C46.107 74.1742 45.8407 74.12 45.3748 74.2521C45.0097 74.3683 44.5279 74.633 44.0313 74.7722C43.3242 74.9822 43.0918 74.889 43.0918 74.889L43.208 75.1219C43.208 75.1219 42.2864 75.1061 41.9792 75.1373C42.0335 75.1527 42.0181 75.1762 42.0181 75.1762C41.9642 75.1853 41.9122 75.2036 41.8645 75.2305C41.7167 75.3263 41.5541 75.397 41.3832 75.4399C41.2901 75.4552 41.2122 75.4553 41.0955 75.4788C41.1344 75.572 41.4375 76.0932 41.5773 76.4004C41.4611 76.4782 39.7131 77.7987 39.7131 77.7987C39.7673 77.884 39.8116 77.9752 39.8452 78.0705C39.8995 78.241 39.923 78.4899 39.9773 78.6061C40.1089 78.8391 40.1867 78.878 40.1867 78.878C40.1867 78.878 39.9773 78.9169 39.6117 79.0101C39.3014 79.0879 38.9205 79.2195 38.3829 79.2973C38.218 79.3188 38.052 79.3317 37.8858 79.3362C37.9636 79.5072 38.3051 80.1595 37.6758 80.9127C37.0466 81.6658 36.8525 81.7754 36.6585 82.2567C36.5608 82.1828 36.4568 82.1177 36.3477 82.0621C36.1383 81.9689 35.8506 81.8296 35.7497 81.6428C35.6909 81.8918 35.613 82.1359 35.5167 82.3729C35.3227 82.8931 35.0355 83.4061 34.9812 83.7942C34.7713 83.5612 34.3832 83.103 33.8471 83.1962C33.311 83.2894 32.884 84.0195 32.7909 84.2294C32.7909 84.0973 32.6977 83.9964 32.6746 84.1516C32.6588 84.3226 32.3638 86.1084 30.7173 87.5533C30.7019 87.1882 30.7019 86.3803 30.663 86.1166C30.5094 86.2702 30.3215 86.497 29.2028 86.9788C28.1076 87.4601 28.2812 87.9419 28.2812 87.9419C28.2812 87.9419 28.188 87.1739 28.7783 86.3649C29.3763 85.5575 29.7414 85.1766 29.7414 85.1146C29.7317 85.0515 29.7048 84.9924 29.6636 84.9436C29.5857 84.8658 29.4306 84.7726 29.4306 84.7107C29.5238 84.6723 30.4479 84.2294 30.3937 83.3124C30.3394 82.4896 29.9902 82.0621 29.7414 81.7595C29.703 81.7206 30.107 81.4334 30.0522 81.3402C30.0133 81.2859 29.5166 80.9203 29.4542 80.7258C29.4688 80.6097 29.4949 80.4953 29.532 80.3843C29.5862 80.2133 29.6252 80.0965 29.6098 79.9803C29.5709 79.7863 29.361 79.2502 29.299 79.1959C29.3533 79.2113 29.7414 79.1959 29.7414 79.1959C29.7414 79.1959 29.4311 78.6988 29.3763 78.4658C29.3215 78.2329 29.2053 77.619 29.1434 77.5027C29.2755 77.5181 29.6016 77.5411 29.6016 77.5027C29.6175 77.386 29.3144 77.192 29.448 77.0419C29.5412 77.0573 29.7199 77.1351 29.8904 77.3527C29.7972 77.1039 29.6421 76.6226 29.3154 76.4286C29.469 76.3743 29.9912 76.234 30.4495 76.5059C30.9077 76.7777 31.0639 77.1582 31.0639 77.1582C31.0639 77.1582 31.3357 77.3681 31.7556 77.6789C32.2369 78.0593 32.8502 78.6005 33.8292 78.9834C34.0391 79.1002 34.5747 79.1002 34.9633 79.0224C35.1325 78.982 35.2947 78.9166 35.4446 78.8283C35.4987 78.7964 35.556 78.7703 35.6156 78.7505C35.5321 78.5829 35.4361 78.4218 35.3283 78.2687C35.4604 78.2687 35.6156 78.2846 35.6156 78.2846C35.6156 78.2846 35.7087 78.0746 35.2894 77.6702C35.3826 77.577 35.4993 77.5166 35.4993 77.3594C35.3672 77.344 35.1343 77.15 35.08 77.0721C35.1573 77.0179 35.2741 76.8392 35.4062 76.7849C35.2894 76.6917 35.0022 76.3031 34.8701 76.2647C34.9963 76.2179 35.1184 76.1607 35.2351 76.0937C35.2351 76.0937 34.5829 75.9227 34.3729 75.7829C34.163 75.6293 33.8527 75.3636 33.6664 75.2858C33.4718 75.208 33.1303 75.1696 32.9905 75.0139C33.1221 75.0528 33.332 75.0139 33.4877 75.0139C33.6039 75.0139 33.6587 75.0293 33.6971 75.0293C33.6817 74.975 33.6817 74.8583 33.9848 74.8199C34.1306 74.7979 34.2721 74.7533 34.4042 74.6878C34.4042 74.6878 34.1164 74.6724 33.7898 74.3616C33.4631 74.0508 33.1918 73.8025 33.0054 73.7636C32.8113 73.7247 32.4463 73.8957 32.221 73.8798C31.9102 73.8414 31.7781 73.6858 31.7781 73.6858C31.7781 73.6858 30.7454 73.779 28.4542 72.3812C26.4733 71.1693 25.6111 70.0977 25.6111 70.0977C25.4257 70.0304 25.2465 69.9471 25.0755 69.8489C24.3301 69.4608 23.2968 68.6528 23.3281 67.5961L23.324 67.6037Z" fill="#C2A44D"/>
<path fill-rule="evenodd" clip-rule="evenodd" d="M51.8985 20.9866C52.0782 21.045 52.2378 21.1527 52.3593 21.2974C52.7243 21.7167 52.9573 22.5088 52.1263 23.3557C52.4525 23.4719 52.5871 23.5093 52.8718 23.4719C52.5846 23.8139 51.9323 24.544 51.8933 25.1809C51.8544 25.7011 52.1806 25.8568 52.1806 25.8568C52.1806 25.8568 51.6834 26.4312 51.6604 27.3928C51.8952 27.128 52.1521 26.8838 52.4284 26.6627C53.0034 26.2044 53.7954 25.6842 54.3315 25.3581C54.3242 25.4948 54.3426 25.6316 54.3858 25.7615C54.3858 25.7615 55.3872 24.9382 56.229 25.3038C56.6094 25.4748 56.4384 26.0104 56.4384 26.0104C56.4384 26.0104 56.9591 25.8163 57.3241 26.1814C57.6892 26.5464 58.2053 27.488 58.47 27.8531C58.5862 28.0241 58.8893 28.3502 59.1996 28.855C59.6235 29.5618 59.9774 30.3083 60.2564 31.0838C60.2717 30.6798 60.3726 30.0511 61.5225 30.4468C62.672 30.8508 63.9765 31.6977 65.0717 33.3653C66.1669 35.0328 66.4382 36.9155 66.9897 37.6323C67.5488 38.3235 68.1238 39.4729 68.1627 39.9547C68.2016 40.4365 67.9917 41.9894 69.1411 46.1914C69.4672 44.8868 69.9644 41.9894 69.9644 41.9894L70.2363 39.434L70.547 31.5272L62.2905 24.6679L55.8363 19.9841L51.6343 20.3881L51.898 20.9861L51.8985 20.9866Z" fill="#CAA13E"/>
<path fill-rule="evenodd" clip-rule="evenodd" d="M67.2389 32.7529C67.2389 32.7529 67.1222 31.9849 65.1807 30.6793C63.2387 29.3901 61.7242 29.3901 60.3264 28.295C59.2543 27.4327 58.1361 25.4518 57.408 24.7995C56.7009 24.1549 56.5847 22.2907 56.5847 22.2907L58.9691 20.2939L62.5152 15.1683L65.513 11.8674L66.9496 13.8642L68.9464 16.2097L70.057 20.9165L70.4609 27.806L67.2353 32.7534L67.2389 32.7529Z" fill="#B59544"/>
<path fill-rule="evenodd" clip-rule="evenodd" d="M69.6389 41.0111C69.6977 39.9663 69.5686 38.9194 69.258 37.9201C68.746 36.3278 67.6273 33.5005 67.1076 32.4417C66.8977 31.2687 67.0533 31.1756 67.2786 31.0435C67.5039 30.9114 68.3507 30.4291 68.8146 28.7369C69.2785 27.0447 70.7177 26.9894 70.7177 26.9894L71.6029 26.3372L72.9469 29.7L74.1194 32.7372L74.4845 35.0596L74.7563 37.04L74.1194 41.2266L70.9742 44.0693L69.6384 41.0111H69.6389Z" fill="#C89D3A"/>
<path fill-rule="evenodd" clip-rule="evenodd" d="M25.7476 87.6743V87.5883C25.8129 87.5474 25.8706 87.4954 25.9181 87.4347C25.9723 87.3568 26.0117 87.2637 26.0501 87.2406C26.128 87.2017 26.493 87.087 26.6871 87.1239C26.8811 87.1607 27.3941 87.3722 27.666 87.3568C28.2251 87.3415 28.8774 86.914 29.9106 87.1085C31.464 87.3958 31.8291 88.452 32.7302 89.05C33.3446 89.4699 33.9805 89.283 34.0737 89.283H34.2831C34.322 89.283 34.6093 88.9568 34.7649 88.9727C35.0757 88.9881 35.1064 89.2446 35.3005 89.2599C35.7587 89.3142 36.6445 89.027 37.0873 89.1437C37.2187 89.1849 37.3381 89.2571 37.4354 89.3544C37.5328 89.4517 37.6052 89.571 37.6464 89.7023C37.7396 89.9895 37.6618 90.3546 37.4365 90.5645C36.9552 91.0069 36.497 91.4267 36.4038 91.7933C36.5223 91.8837 36.6361 91.9801 36.7448 92.0821C32.9018 91.103 29.2044 89.6225 25.7476 87.6789V87.6743Z" fill="#CEB052"/>
<path fill-rule="evenodd" clip-rule="evenodd" d="M67.1067 72.1559C67.1067 72.1559 68.3181 70.5406 68.7379 69.7403C69.1572 68.9155 67.4098 58.4707 67.4098 58.4707L70.9206 46.9681L70.8269 43.2244C70.8269 43.2244 70.9979 39.7678 71.4019 38.2687C71.8836 39.1309 73.3828 40.1718 73.7089 40.7232C73.8625 39.6665 74.3843 37.4377 74.3069 35.061C74.5942 35.5034 75.2854 39.9542 75.2854 39.9542L75.9766 42.952L76.8777 46.1366L77.8797 49.4999L78.4777 51.8224L78.8192 52.3815L79.1069 53.3599L79.3788 54.4167L80.1632 56.8942L80.624 58.9289L80.9891 62.6184C81.0685 62.9009 81.1256 63.1892 81.1601 63.4806C81.1754 63.8846 81.1058 64.1175 81.1058 64.1877C81.1058 64.2578 81.2379 65.0729 81.1836 65.6868C81.1058 66.3012 81.1058 66.782 80.624 67.2228C80.1422 67.6637 79.8396 70.2984 79.8396 70.2984L78.9774 69.7239C78.9774 69.7239 79.1484 68.939 78.7444 68.2248C78.3405 67.5106 77.5561 67.3626 77.1132 67.4793C76.6708 67.5725 75.7856 67.7118 75.4979 67.9606C75.226 68.2089 74.5583 68.978 73.9444 69.3277C73.1764 69.7885 71.9251 69.8248 71.2575 69.9799C70.5816 70.1335 69.8362 70.5943 69.0513 71.1294C68.4359 71.5278 67.7861 71.8705 67.1098 72.1534L67.1067 72.1559Z" fill="#CCA847"/>
<path fill-rule="evenodd" clip-rule="evenodd" d="M67.1067 89.1265C67.1067 89.1265 67.1579 89.1598 67.2567 89.2141C72.7748 86.6288 77.719 82.9641 81.7975 78.4365C81.753 76.8646 81.6951 75.2534 81.6316 74.6564C81.5 73.3902 81.5932 72.101 81.5543 71.3555C81.5154 70.61 81.0961 67.5728 80.902 66.7885C80.6921 66.0041 80.2876 65.6155 80.2262 65.6155C80.1719 65.6314 79.8452 67.0916 79.8452 67.4587C79.8452 67.8258 79.7674 68.7095 79.7674 68.9348C79.7132 68.9189 79.6901 68.7812 79.6901 68.7249C79.6123 68.9189 79.5191 69.2609 79.4802 69.2998C79.4413 69.3387 79.5345 68.9737 79.4802 68.8959C79.4259 68.818 79.3266 68.8569 79.3481 68.6629C79.3573 68.5478 79.3754 68.4336 79.4024 68.3214C79.4024 68.3214 79.1694 68.6629 78.9989 69.5328C78.8279 70.395 78.8279 70.4185 78.766 70.4959C78.7117 70.5896 78.4009 70.8998 78.385 71.0166C78.3697 71.226 78.6728 71.4359 78.6958 71.5521C78.7112 71.7467 78.4239 72.6473 78.3308 73.0881C78.2376 73.5289 78.2765 74.3927 78.1772 74.8356C78.0993 75.2395 78.0236 75.4725 77.7578 75.643C77.9519 75.6819 78.1382 75.7362 78.1382 75.7362C78.1382 75.7362 78.4101 76.8856 77.7189 77.8646C77.4706 78.2061 77.4086 78.3617 77.1444 78.6725C76.6237 79.247 76.2198 79.9013 76.1809 80.3268C76.154 80.2012 76.1359 80.0739 76.1266 79.9458C76.1266 79.9458 75.3192 80.8859 74.9772 81.4219C74.5348 82.1131 73.9209 82.0742 73.7484 82.2452C73.5758 82.4162 73.5384 82.7265 73.5948 82.9753C73.4412 83.0137 73.1524 83.0685 72.9578 83.6665C72.8646 83.9768 72.6317 84.2809 72.2666 84.4898C71.9016 84.6987 71.4587 84.7617 71.2334 84.816C71.4275 84.8703 71.5053 84.8703 71.5985 84.9322C71.4822 85.1263 70.9462 85.4294 70.3482 85.818C69.7501 86.183 69.4624 86.7186 69.3149 87.0683C69.1613 87.3944 68.9345 87.6043 68.5695 87.6433C68.7231 87.7364 68.9504 87.9535 69.0666 88.0237C68.8956 88.0626 68.6058 88.0626 68.0882 88.5055C67.5444 88.956 67.3581 89.0881 67.1092 89.127L67.1067 89.1265Z" fill="#C39D3C"/>
<path fill-rule="evenodd" clip-rule="evenodd" d="M56.2994 92.7258C56.5968 92.5173 56.919 92.3465 57.2584 92.2174C58.4698 91.7361 59.7513 91.6429 60.2562 91.4878C60.738 91.3342 61.1184 91.1222 61.7164 91.006C61.7005 91.1422 61.6872 91.2702 61.6729 91.391C59.9098 91.9453 58.1144 92.391 56.2969 92.7258H56.2994Z" fill="#D2BA6B"/>
<path fill-rule="evenodd" clip-rule="evenodd" d="M78.6436 60.8627C78.6436 60.8627 78.3953 62.2062 77.9524 63.0531C77.5095 63.8999 77.0308 65.0724 77.0308 65.0724C77.0337 64.8082 77.065 64.545 77.124 64.2875C76.5649 64.6136 75.2055 65.3985 74.82 65.7477C74.4549 66.0739 73.8411 66.6488 73.6859 66.9207C74.051 65.8491 74.4314 64.886 74.4939 64.4431C73.9348 64.8471 71.3246 66.9985 69.9657 68.4198L65.7325 71.8451C65.244 72.1087 64.7409 72.3442 64.2257 72.5507C63.4961 72.8609 62.6339 73.1251 61.997 73.374C62.168 72.9157 62.4393 72.5112 62.8203 72.1231C63.2242 71.7427 64.4356 70.43 64.622 69.8191C64.793 69.1822 64.8319 68.8018 64.6066 68.2657C64.3967 68.32 63.9154 68.3436 63.5893 68.4367C63.2631 68.5299 62.9135 68.8791 62.9135 68.8791C62.9135 68.8791 63.1618 67.4578 63.6978 66.1143C63.2939 66.1297 62.6027 66.2459 62.6027 66.2459C62.6027 66.2459 63.5657 64.6305 65.2139 63.5046C64.7091 63.6121 64.2152 63.7653 63.7383 63.9624C62.7752 64.3663 61.719 64.9644 60.9346 65.2905C61.3769 64.6761 64.4838 60.2422 66.3326 56.1098C68.1758 51.9857 68.8644 50.9294 69.2684 48.716C69.4778 47.6209 69.422 46.0024 69.4778 44.553C69.5321 43.1158 69.7108 41.8266 69.5945 40.9644C70.0758 41.5624 71.8781 43.2479 71.94 47.0152C71.9943 50.782 70.2161 55.8697 68.3284 58.6109C68.7892 58.743 69.9831 58.8987 71.2099 56.7677C72.4367 54.6368 72.4218 54.0419 72.8647 53.1561C72.919 53.599 72.9031 53.7541 72.9031 53.7541C72.9031 53.7541 74.69 51.5873 75.5363 48.8609C75.7073 50.0339 76.2121 51.0671 75.4196 53.2186C74.713 55.1601 73.7888 55.6342 73.7888 55.6342C73.7888 55.6342 74.2471 55.5564 74.9224 55.1524C75.0391 55.4396 75.0161 55.7668 75.2101 55.8825C75.4042 55.9982 75.6684 56.1933 75.7073 56.3797C75.9167 56.0689 76.2429 55.6726 76.3442 55.3777C76.2664 55.9921 76.2121 58.6785 76.4978 60.0456C77.0964 59.9913 77.7097 59.9524 78.1291 58.8726C77.8418 59.9293 77.8418 60.5658 78.0359 61.4669C78.3543 61.2498 78.6416 60.8612 78.6416 60.8612L78.6436 60.8627Z" fill="#C0993A"/>
<path fill-rule="evenodd" clip-rule="evenodd" d="M58.4621 18.0507C58.4621 18.0507 57.8641 18.299 56.8468 18.299C55.9615 18.299 56.2099 17.9575 54.8275 17.9575C52.6996 17.9575 45.2664 19.1863 43.9613 19.1689C43.1144 19.1536 46.8193 19.534 46.8193 19.534L56.2877 19.6661L58.1903 19.5125L58.8973 18.0737L58.4621 18.0507Z" fill="#A88F33"/>
<path fill-rule="evenodd" clip-rule="evenodd" d="M33.911 36.5594C33.911 36.5594 32.6991 37.4836 32.1866 38.1907C31.6741 38.8977 31.4022 39.3632 30.8196 39.9381C30.9564 39.9433 31.093 39.925 31.2235 39.8839C31.2235 39.8839 31.2235 40.0375 31.1304 40.0779C31.2109 40.0689 31.2924 40.078 31.3689 40.1046C31.4455 40.1312 31.5151 40.1745 31.5727 40.2315C31.4017 40.3247 30.9358 40.7911 31.3009 41.3425C31.5727 41.7619 32.1477 41.8003 32.1477 41.8003C32.1477 41.8003 32.0156 42.1812 32.567 42.1423C33.7554 42.088 35.0835 41.5673 35.6969 41.6994C36.3113 41.853 36.6605 41.9093 37.0952 42.663C37.556 43.4085 37.9574 43.5252 37.9574 43.5252C37.9574 43.5252 38.2292 42.8335 38.1673 41.8008C38.3902 41.2441 38.5138 40.6527 38.5323 40.0533L38.1284 37.0786L36.3656 34.8494L34.082 36.1155L33.911 36.5579V36.5594Z" fill="#E3C571"/>
<path fill-rule="evenodd" clip-rule="evenodd" d="M36.0776 36.1164C36.0776 36.1164 36.2486 36.5204 36.9634 36.5588C36.8856 36.7298 36.8856 36.7533 36.9091 36.8849C36.9245 37.017 36.9475 37.2111 36.9475 37.2111C37.0262 37.173 37.0973 37.121 37.1574 37.0575C37.1964 37.2285 37.1185 37.4998 37.1574 37.6944C37.1815 37.8127 37.2205 37.9275 37.2737 38.0359C37.285 38.0093 37.298 37.9835 37.3126 37.9586C37.3279 37.9197 37.4662 38.3779 37.8486 38.7266C37.8483 38.673 37.8615 38.6201 37.887 38.573C37.8929 38.6704 37.9251 38.7644 37.9802 38.8449C37.9516 38.8312 37.9255 38.8129 37.9029 38.7906C37.9029 38.7906 37.9413 40.0194 38.1512 40.6548C38.1863 40.6137 38.2175 40.5695 38.2444 40.5227C38.2444 40.4843 38.2291 40.8647 38.1901 41.1371C38.1359 41.409 38.1748 41.7894 38.1748 41.7894C38.3148 41.6791 38.4687 41.5877 38.6325 41.5175C38.8655 41.4238 39.2469 41.1366 39.4794 40.4997C39.6142 40.1389 39.7182 39.7674 39.7901 39.3891C39.8652 39.5337 39.9171 39.6892 39.9437 39.8499C39.9596 40.044 40.3247 39.9431 40.3247 39.9431L40.4025 39.0963L40.8633 37.1778L41.2826 35.9894L43.302 32.8442L46.9505 30.0344L50.1351 30.7645L52.8221 27.1139L48.1931 24.3333L43.8124 24.7915L39.8367 30.2981L36.6526 35.2926L36.0776 36.1159V36.1164Z" fill="#D8B65B"/>
<path fill-rule="evenodd" clip-rule="evenodd" d="M59.0217 28.1478C59.0217 28.1478 58.7498 28.2021 57.9655 28.6086C57.1811 29.0151 56.6373 29.1441 56.3342 29.7422C56.0311 30.3402 56.0081 30.8143 56.0081 30.8143C56.0081 30.8143 56.5441 30.5813 56.8549 30.5035C57.1811 30.4262 57.5461 30.4492 57.5072 30.5813C57.4699 30.6719 57.418 30.7558 57.3536 30.8297C57.3536 30.8297 57.968 30.8143 57.9516 31.1174C57.9353 31.4205 57.8354 31.7543 57.7192 31.9018C57.6025 32.0554 57.1212 32.2827 57.0669 32.4614C56.9348 32.8265 57.1212 32.8418 57.051 33.1367C56.9968 33.4245 56.7408 33.9836 55.9016 34.962C55.0394 35.9409 54.6728 36.6321 54.6728 36.6321C54.6728 36.6321 54.2535 35.8478 54.0359 35.1719C53.8823 35.2492 53.0574 35.7075 53.0574 35.7075L51.1466 29.0515L51.1851 28.6086C51.1851 28.6086 51.3561 28.3992 51.395 28.0106C51.1077 27.9174 51.0688 27.8396 50.6879 27.475C50.307 27.1105 49.9967 26.6671 49.3603 26.364C49.2671 26.193 49.1504 25.9605 48.6844 25.8668C48.2185 25.7731 47.939 25.6963 47.939 25.6963C47.939 25.6963 48.1873 25.6026 48.304 25.4086C48.0163 25.4475 47.7838 25.5407 47.1546 25.5253C46.5177 25.5095 46.4475 25.4864 46.0983 25.5407C45.7491 25.595 45.3303 25.7506 45.1742 25.2145C45.0032 25.0825 44.6381 25.1992 44.3273 25.6569C44.0165 26.1146 43.908 26.4802 43.31 26.6589C43.2679 26.9225 43.1756 27.1756 43.0381 27.4044C42.8671 27.6921 42.5952 27.9793 42.2302 28.4064C41.6552 29.0822 41.7484 30.1927 40.8319 31.0396C39.9077 31.8859 40.9855 28.6936 40.9855 28.6936L42.4611 25.1608L46.6631 21.052L53.1875 20.6096L53.8244 23.9888L57.009 25.084L59.0207 28.1519L59.0217 28.1478Z" fill="#D3AE4D"/>
<path fill-rule="evenodd" clip-rule="evenodd" d="M60.0544 28.8934L57.3127 24.9403L55.3942 23.4642C55.3942 23.4642 54.0272 20.9482 53.934 20.8704C53.8562 20.8161 52.567 20.6763 51.7437 20.6221L51.8973 21.0025C52.0769 21.0609 52.2366 21.1685 52.3581 21.3133C52.7231 21.7326 52.9561 22.5247 52.1251 23.3715C52.4512 23.4877 52.5859 23.5251 52.8706 23.4877C52.5833 23.8298 51.9311 24.5599 51.8921 25.1968C51.8532 25.717 52.1794 25.8721 52.1794 25.8721C52.1794 25.8721 51.6822 26.4471 51.6592 27.4081C51.894 27.1434 52.1509 26.8991 52.4272 26.678C53.0022 26.2172 53.7942 25.6991 54.3303 25.3729C54.323 25.5098 54.3414 25.6468 54.3846 25.7769C54.3846 25.7769 55.386 24.9536 56.2278 25.3186C56.6082 25.4897 56.4372 26.0257 56.4372 26.0257C56.4372 26.0257 56.9579 25.8317 57.3229 26.1967C57.688 26.5618 58.2082 27.5013 58.4724 27.8669C58.5886 28.0379 58.8917 28.364 59.202 28.8683C59.6259 29.5753 59.9799 30.3219 60.2587 31.0976C60.2741 30.7868 60.3366 30.3521 60.8731 30.3521L60.0575 28.8919L60.0544 28.8934Z" fill="#CAA13E"/>
<path fill-rule="evenodd" clip-rule="evenodd" d="M18.952 40.1243C18.952 40.1243 18.7579 39.6425 18.952 38.7029C19.146 37.7634 19.4491 37.3205 19.55 35.9381C19.6508 34.5557 20.552 32.8313 20.552 32.8313L23.0449 31.6978L24.8082 32.179L25.3284 34.5404L23.0992 35.7692C23.0992 35.7692 22.9829 36.2894 22.3537 36.7087C21.7244 37.128 20.8546 37.4542 20.6452 37.8817C20.52 38.1435 20.4286 38.4201 20.3733 38.705C20.3733 38.705 19.7364 38.5729 19.3559 38.9922C18.952 39.4197 18.9673 39.8002 18.952 40.1263V40.1243Z" fill="#F4EFC8"/>
<path fill-rule="evenodd" clip-rule="evenodd" d="M23.9847 39.4952C23.9847 39.4952 23.7748 39.6273 23.6197 39.956C23.4661 39.7077 23.099 38.2316 23.0836 36.9035C23.0682 35.5753 22.9889 35.2461 23.2961 34.7884C23.6033 34.3307 24.808 33.8484 24.637 33.024C24.466 32.2397 23.7512 31.9135 22.8737 32.1388C22.2593 32.2924 21.8021 33.599 21.1651 34.2513C20.6833 34.7485 20.1089 34.6706 19.9537 34.9425C19.7438 35.3076 19.9379 35.6726 19.8759 35.9056C19.86 35.9834 19.666 36.4027 19.3163 36.9076C18.6097 37.9249 17.4137 39.3621 17.2581 40.6513C17.3123 39.9212 17.2739 39.9058 17.468 39.0979L17.3512 38.9038L18.1192 36.3874L18.6164 34.3138L19.7274 30.8414L21.6843 27.2922L23.5874 25.1638L25.5678 25.2959L25.8008 28.2706L26.9349 33.8555L29.3192 36.7913L25.4977 39.3631L23.9832 39.4952H23.9847Z" fill="#EBCC73"/>
<path fill-rule="evenodd" clip-rule="evenodd" d="M25.1725 40.5503C25.1725 40.5503 24.8464 40.6281 24.7297 40.5661C24.6129 40.5042 24.4972 40.434 24.5356 40.3562C24.574 40.2784 24.7839 40.1468 24.7839 40.0843C24.7883 40.0279 24.7704 39.972 24.7342 39.9285C24.6979 39.885 24.6462 39.8573 24.5899 39.8514C24.4112 39.8283 24.3569 39.9446 24.3569 39.9446C24.3569 39.9446 24.1859 39.813 24.0467 39.791C24.1291 39.7809 24.212 39.7756 24.295 39.7751C24.0803 39.6779 23.8527 39.6125 23.6191 39.581C23.8132 39.4648 24.1941 39.1228 24.4424 39.1228C24.6908 39.1228 24.8464 39.0844 24.8075 38.9523C24.7686 38.8202 24.5745 38.6262 24.3651 38.5483C24.4424 38.4552 24.4972 38.3154 24.3109 37.9339C24.1163 37.5535 24.1941 37.297 24.2566 37.2043C24.3109 37.0876 24.5049 36.8782 24.5981 36.7461C24.6913 36.614 24.7691 36.4353 24.9242 36.3421C25.0021 36.2879 25.2504 36.1885 25.4992 36.0938C25.7711 36.0006 25.9964 35.8839 26.1515 36.0006C26.3225 36.1168 26.2447 36.2725 26.2447 36.2725C26.2447 36.2725 26.7807 36.0779 27.262 36.3268C27.7438 36.5592 28.9168 36.7072 28.9168 36.7072L29.3372 37.554L26.5565 39.9384L25.407 40.5134L25.1741 40.5518L25.1725 40.5503Z" fill="#E5C66B"/>
<path fill-rule="evenodd" clip-rule="evenodd" d="M29.033 36.6524C29.033 36.6524 28.1708 37.2274 27.9767 37.4368C28.0929 37.4527 28.287 37.5305 28.2092 37.6467C28.116 37.763 27.5569 38.1669 27.2461 38.5479C26.92 38.9283 26.6092 39.4101 26.5006 39.643C26.3844 39.8524 25.4986 40.4663 25.196 40.5436C25.833 40.5436 27.1145 39.7593 27.5958 39.7593C27.5804 39.9922 27.7279 40.2564 27.9998 40.2795C28.2716 40.3025 29.056 40.4505 30.1123 39.7982C31.1685 39.1612 30.8193 38.6871 31.2617 38.3769C32.1086 37.8172 32.4501 37.3201 32.916 37.0098C33.3819 36.6995 33.6231 36.6289 33.6231 36.6289C33.6231 36.6289 33.6384 36.3959 33.7767 36.4195C33.8145 36.4238 33.8504 36.4384 33.8806 36.4617C33.9107 36.485 33.9339 36.5161 33.9477 36.5516C33.9477 36.5516 34.7556 35.9766 35.7909 35.8215C35.7667 35.8107 35.7474 35.7913 35.7366 35.7672C35.7366 35.7672 35.8139 35.7283 35.8298 35.6894C35.8298 35.6894 35.884 35.6115 35.923 35.6505C35.9619 35.6894 36.0161 35.9766 36.094 36.0933C36.265 36.0155 36.5911 35.2854 36.5911 35.2854L37.376 33.0408V30.9902L36.7616 31.107L32.1536 33.0638L29.3571 35.9612L29.0309 36.6524H29.033Z" fill="#E6BD62"/>
<path fill-rule="evenodd" clip-rule="evenodd" d="M42.2989 26.5944C42.5481 26.534 42.7871 26.437 43.008 26.3067C42.9148 26.5555 42.9148 26.8274 42.5108 27.4177C42.1069 28.0081 42.0915 28.0936 41.7654 28.707C41.4392 29.3439 41.4003 30.2604 41.0895 30.6638C41.2288 30.5961 41.3782 30.5517 41.5319 30.5322C41.5319 30.5322 41.2216 30.8041 41.0895 31.0913C40.9574 31.3786 40.7245 31.9766 40.15 32.3422C39.5755 32.7077 38.8449 32.9402 38.0605 33.8024C37.2756 34.6487 36.4682 35.7208 36.0637 36.1064C36.2736 35.7413 36.5609 35.0112 36.6387 34.5299C36.7165 34.0487 36.6228 33.4732 36.7549 32.8368C36.887 32.2003 36.887 31.7416 37.5229 30.6305C38.1588 29.5195 39.2473 25.6595 39.2473 25.6595L41.5928 24.9141L42.2999 26.5919L42.2989 26.5944Z" fill="#B6933F"/>
<path fill-rule="evenodd" clip-rule="evenodd" d="M40.6056 25.1728C40.6056 25.1728 39.899 26.1902 39.705 27.0913C39.5109 27.9924 39.6891 27.9146 39.5729 28.3575C39.5034 28.6275 39.5034 28.9107 39.5729 29.1808C39.8176 28.7865 40.1526 28.4562 40.5503 28.2172C41.2185 27.8137 41.7622 27.526 42.0863 27.1845C42.4124 26.8194 42.6843 26.2214 43.3909 25.7632C43.1036 25.7242 42.6997 25.5921 42.6229 25.6096C42.9106 25.2834 43.7723 24.7863 44.6422 24.1882C45.5044 23.5738 45.4501 23.326 46.8484 22.7127C46.3902 22.7905 46.1726 22.6737 45.7916 22.7127C45.9452 22.3865 46.4828 22.2309 47.0204 21.6953C47.558 21.1598 46.6789 20.3672 46.6789 20.3672L42.5829 22.8448L40.6025 25.1749L40.6056 25.1728Z" fill="#C49937"/>
<path fill-rule="evenodd" clip-rule="evenodd" d="M29.491 23.324L29.5842 22.5785L30.7571 20.699L31.9844 17.3981V12.8853L31.8912 10.2757L32.0853 8.56663L32.2327 8.0234L32.3884 7.81348L33.3898 8.33367L34.7728 10.2132L34.9049 13.8407L33.5609 19.5649L29.7239 23.7515L29.491 23.324Z" fill="#DFC068"/>
<path fill-rule="evenodd" clip-rule="evenodd" d="M32.5439 7.60348C32.5439 7.60348 31.9295 7.61935 31.7984 10.1747C31.6673 12.7301 31.6038 14.0736 31.5107 15.3398C31.4175 16.606 31.2004 17.3745 31.0913 18.1205C30.9823 18.8665 30.9203 19.8833 30.5711 20.5049C30.4175 20.7921 30.0893 21.6932 29.3203 22.369C28.4581 23.1145 27.1699 23.6352 26.9748 23.6741C26.6328 23.7514 24.9007 23.9225 24.1942 24.3111C23.9459 24.4432 23.5183 24.5983 23.0447 25.0412C22.1047 25.8875 20.8544 27.402 19.9533 29.2273C18.5709 31.9537 17.1885 39.6506 17.1885 39.6506L17.4993 39.1304C17.4993 39.1304 17.5382 38.4392 18.2294 37.2273C18.9052 36.0159 18.7112 34.6565 19.6507 32.3341C20.0157 31.4489 20.474 30.2994 21.0331 29.3205C21.9188 27.7282 22.9905 26.3611 24.0703 25.6156C25.8331 24.4042 27.7751 24.1401 27.7751 24.1401L29.8646 22.7577C29.8646 22.7577 30.2296 22.0511 30.7114 21.2432C31.3868 20.1096 32.2474 18.8434 32.4353 17.0028C32.7231 14.2764 32.0314 12.49 32.0703 10.8746C32.1092 9.25929 32.1245 8.07094 32.4512 7.78319C32.7779 7.49545 32.5444 7.6045 32.5444 7.6045L32.5439 7.60348Z" fill="#A88F33"/>
<path fill-rule="evenodd" clip-rule="evenodd" d="M32.544 19.7981C32.544 19.7981 33.4656 17.5299 33.8875 15.5183C33.9653 15.1143 34.1204 14.7108 34.1593 14.3847C34.3534 12.4816 34.4077 11.6972 34.1593 10.6563C33.9653 9.88831 33.2198 9.19608 32.8312 8.65951C32.4508 8.09989 32.2721 7.89151 32.3499 7.77375C32.4278 7.65599 32.7304 7.46347 33.0253 7.48651C33.3388 7.49564 33.6471 7.56843 33.9316 7.70045C34.2161 7.83248 34.4707 8.02099 34.68 8.25451C35.2781 8.94571 35.7517 11.2917 35.7517 11.2917L36.2498 14.3872L37.516 18.2861L32.545 19.8011L32.544 19.7981Z" fill="#C99E3D"/>
<path fill-rule="evenodd" clip-rule="evenodd" d="M41.2036 17.4374C41.2036 17.4374 41.0326 17.5147 40.7223 17.4374C40.7355 17.5642 40.7135 17.6922 40.6587 17.8073C40.6039 17.9224 40.5183 18.0201 40.4115 18.0897C40.0854 17.9576 37.0323 18.2218 37.0323 18.2218C37.0323 18.2218 35.611 17.973 35.1681 16.0934C34.8578 14.8426 35.4011 13.1187 35.2224 11.9846C34.9505 10.3145 34.5701 9.98783 34.5312 9.46815C34.4923 8.94847 34.4534 8.81586 34.4534 8.48971C34.2824 8.4508 34.1815 8.39653 34.011 8.39653C33.9721 8.24293 34.0494 8.10879 33.8789 7.83691C33.9721 7.87583 34.609 7.95365 35.3545 8.66021C35.9689 9.23519 35.9689 9.44459 36.0616 9.56133C36.1778 9.67755 37.1178 10.4829 37.5218 11.2857C37.9258 12.0886 38.7101 14.6486 38.8888 15.0679C38.9431 15.2389 39.0598 15.4099 39.3496 15.798C39.8002 16.3576 40.4602 17.2828 41.2056 17.4364L41.2036 17.4374Z" fill="#B58634"/>
<path fill-rule="evenodd" clip-rule="evenodd" d="M36.1714 9.59985C36.6419 10.3599 37.0646 11.1486 37.4371 11.9612C37.8953 12.9939 38.1672 13.8407 38.7421 14.5319C38.4314 13.6313 37.8799 11.8603 37.5538 11.2311C37.1887 10.5655 36.4433 9.84869 36.1714 9.60037V9.59985Z" fill="#A88F33"/>
<path fill-rule="evenodd" clip-rule="evenodd" d="M30.8893 22.3694C30.8893 22.3694 30.1049 22.5635 28.6446 23.3325C28.1629 23.5808 27.7051 23.7902 27.2622 23.9848C26.1118 24.505 24.8779 24.9857 23.8989 25.2509C23.9767 25.3441 24.0151 25.3825 24.0151 25.3825C24.0151 25.3825 24.0151 25.7635 24.2251 25.9805C24.1088 26.0973 22.5549 27.1535 23.0137 30.6874C23.3239 30.5711 23.689 30.4155 23.7433 30.4155C23.837 30.4314 23.86 30.6874 23.9762 30.6874C24.0925 30.6874 24.4734 30.5338 24.8774 30.0115C24.862 30.2214 24.629 32.334 25.8793 33.7553C26.1123 33.4834 26.7026 32.5823 26.7026 32.5823L26.718 32.295C26.718 32.295 26.7723 31.2931 27.0989 30.3766C27.4256 29.4601 28.062 28.7843 28.062 28.7843L31.3854 24.0385L30.8882 22.3689L30.8893 22.3694Z" fill="#E6C367"/>
<path fill-rule="evenodd" clip-rule="evenodd" d="M27.7827 29.3377C27.6306 29.4452 27.4629 29.529 27.2856 29.586C27.2313 29.392 27.1535 28.7238 27.6117 28.0715C28.1478 27.2866 29.3203 26.2693 29.6464 25.4603C29.8563 24.9396 29.7631 23.6351 31.6273 21.9649C33.4915 20.2948 34.2211 19.7203 34.2211 19.7203L37.2347 18.2058L40.9396 19.666L39.0989 26.8801L37.67 30.2593L31.9867 29.1877L27.7822 29.3377H27.7827Z" fill="#DCBA5A"/>
<path fill-rule="evenodd" clip-rule="evenodd" d="M29.9517 27.3785L30.6587 26.4932V25.864C30.6587 25.864 31.4431 25.6541 32.2895 24.7919C33.1358 23.9296 34.3088 22.2754 35.342 22.3762C36.3752 22.493 36.4761 24.6208 36.515 25.2194C36.5539 25.8179 36.686 27.1762 36.8954 27.9069C37.1284 28.637 34.3789 31.4018 34.3789 31.4018L32.5117 32.8231L29.9517 27.3785Z" fill="#E9CE77"/>
<path fill-rule="evenodd" clip-rule="evenodd" d="M32.1401 34.7496C32.1401 34.7496 32.7151 33.8485 32.2937 33.6545C32.5421 33.0954 33.0003 32.505 33.0003 32.505C33.0003 32.505 33.3264 31.6976 34.3827 30.7033C35.439 29.709 36.0918 29.0485 36.2628 28.3809C36.3682 27.9457 36.4255 27.5004 36.4338 27.0527C36.548 27.146 36.6701 27.2291 36.7988 27.3011C36.9698 27.3789 37.7773 28.0465 37.661 29.3905C37.5448 30.7345 37.0466 31.2936 37.0466 31.2936C37.0466 31.2936 36.5654 31.7749 36.2238 32.0237C35.8583 32.2721 35.7267 32.5593 35.1128 32.5828C35.1759 32.5327 35.2468 32.4932 35.3227 32.4661C35.3227 32.4661 34.6858 32.3888 34.3438 32.6991C34.0018 33.0093 33.2747 33.9652 32.9097 34.253C32.5446 34.4859 32.1417 34.7501 32.1417 34.7501L32.1401 34.7496Z" fill="#CDAE50"/>
<path fill-rule="evenodd" clip-rule="evenodd" d="M57.9652 19.6426C57.0475 19.3081 56.0832 19.1195 55.1072 19.0835C53.476 19.0292 51.0916 19.1224 48.7538 19.1377C46.2373 19.1531 43.9538 18.2755 40.785 18.1204C40.2648 17.8096 38.9418 16.4502 34.812 19.3318C35.0603 19.3164 37.8103 18.6948 38.7652 19.8914C39.7282 21.0797 39.4564 23.0991 39.3248 23.5803C39.0759 24.6525 38.268 26.2136 37.9424 27.3087C37.6167 28.4039 37.6935 28.9794 37.4606 29.7474C37.2276 30.5154 36.7151 30.8968 37.0177 31.7821C37.4217 31.5338 37.6321 31.5338 38.3069 30.0193C38.9817 28.5048 38.843 27.425 39.9617 26.1434C41.0569 24.8542 42.8801 23.0909 43.5734 22.648C44.2666 22.2051 49.7711 19.3471 55.5347 22.0735C56.9248 21.9261 57.9657 19.642 57.9657 19.642L57.9652 19.6426Z" fill="#D2A83E"/>
<path fill-rule="evenodd" clip-rule="evenodd" d="M37.134 18.5857C37.1283 18.5273 37.1154 18.4699 37.0956 18.4147C37.0417 18.3011 36.971 18.1963 36.8857 18.1039C36.8857 18.1039 35.5187 17.8556 34.8275 17.9329C33.6156 18.065 32.5204 19.5641 32.0079 20.3331C31.4954 21.1022 30.8585 22.29 30.1673 22.9039C30.1748 22.8441 30.1611 22.7835 30.1284 22.7329C30.1284 22.7329 30.1673 22.7872 30.09 22.865C30.0126 22.9428 30.0121 22.9812 30.051 23.0186L30.1678 23.1348C30.2062 23.1348 31.2783 22.653 32.7385 21.2916C34.2919 19.8703 35.4803 19.1412 36.1019 18.8914C36.4333 18.7505 36.7798 18.6479 37.1346 18.5857H37.134Z" fill="#C29637"/>
<path fill-rule="evenodd" clip-rule="evenodd" d="M63.6509 12.7456C63.6509 12.7456 63.4021 13.0559 63.0913 13.3979C62.4001 14.128 61.499 14.9508 60.73 15.7976C60.0004 16.6056 59.1771 17.2348 58.2524 18.2911C57.3277 19.3473 56.2556 20.5198 55.9842 20.8618C55.7359 21.2038 55.5419 21.7629 55.5419 22.0502C55.4098 21.957 55.2546 21.8561 55.2546 21.8561C55.3199 21.9781 55.398 22.0927 55.4876 22.1981C55.6816 22.47 55.9842 22.8125 56.1399 23.0214C56.3308 23.2874 56.4679 23.5881 56.5433 23.9067C56.6365 23.9221 57.2345 24.0388 57.9805 22.8115C58.7265 21.5843 59.7044 20.2408 59.7044 20.2408L61.2578 17.9337L62.2368 15.9768L63.4656 13.7865L63.6525 12.7456H63.6509Z" fill="#AC8132"/>
<path fill-rule="evenodd" clip-rule="evenodd" d="M65.2431 11.1768C65.2431 11.1768 64.3031 11.9448 63.938 12.4056C63.573 12.8664 62.7092 14.0757 62.7092 14.0757L63.02 14.0368L64.597 12.639L65.2114 11.5439L65.2426 11.1788L65.2431 11.1768Z" fill="#A88F33"/>
<path fill-rule="evenodd" clip-rule="evenodd" d="M64.9553 72.9013C64.9553 72.9013 64.9399 72.2644 65.2973 71.884C65.6623 71.503 66.5865 70.9439 67.4876 68.8468C68.3887 66.7496 68.4891 66.276 68.4891 66.276C68.4891 66.276 66.8737 67.6584 65.8779 67.9846C66.1109 67.5028 66.2429 67.1613 66.3597 66.9124C66.2276 66.7962 65.6685 66.6641 65.6142 66.6022C65.9245 66.2914 66.0955 65.53 66.7247 65.0252C67.5327 64.4108 69.0083 63.3551 70.1551 62.414C71.302 61.4729 73.5569 59.2841 73.8446 58.6472C74.0156 58.8955 74.054 59.0507 74.054 59.0507C74.054 59.0507 72.9204 60.5268 72.3301 61.4663C71.8094 62.2742 71.8483 62.7325 71.8483 62.7325L72.9205 62.2717C72.9205 62.2717 73.2307 63.4211 71.8253 65.1691C72.4397 64.9361 72.6875 65.0759 73.0367 64.8813C72.4617 65.2469 71.6696 65.7441 70.9242 67.1106C70.1941 68.4776 69.1998 70.0699 67.5224 71.0637C65.8912 72.1123 64.9512 72.8967 64.9512 72.8967L64.9553 72.9013Z" fill="#A67A2E"/>
<path fill-rule="evenodd" clip-rule="evenodd" d="M60.746 20.4506C60.746 20.4506 60.109 21.7783 60.0159 22.8115C60.0005 23.0603 59.938 23.2543 59.938 23.5416C59.9227 24.4657 59.9923 25.499 59.7844 25.9802C59.7066 25.7862 59.6677 25.6541 59.5899 25.5768C59.4736 25.9029 59.2637 26.9203 59.0927 27.3007C59.0154 27.0524 58.8444 26.1902 58.8603 25.1728C58.8761 24.1555 58.8987 23.9609 58.8987 23.7515C58.8603 24.0618 58.6503 24.4816 58.5725 24.7299C58.4563 24.5205 58.3242 24.2487 58.1686 24.0234C58.0754 24.177 57.9592 24.4038 57.8583 24.5205C57.8424 24.4273 57.804 24.1785 57.7805 23.8293C57.7651 23.4254 57.7415 22.9052 57.7651 22.7961C57.8035 22.5867 58.1302 21.7634 58.8214 21.0097C59.6447 20.1086 60.4915 18.377 60.7398 17.841C60.9881 17.3049 62.0444 15.0762 62.0444 15.0762H62.8523L61.6793 17.7478C61.6793 17.7478 60.9728 19.208 60.6077 19.7446C60.2427 20.2812 59.4736 21.8187 59.1316 22.4167C59.38 22.0906 59.5899 21.9196 59.8387 21.6088C60.0793 21.3912 60.747 20.4517 60.747 20.4517L60.746 20.4506Z" fill="#8C6228"/>
<path fill-rule="evenodd" clip-rule="evenodd" d="M65.2586 11.0757C65.1267 11.4819 64.9181 11.859 64.6442 12.1867C64.1624 12.7617 63.1292 13.5302 62.6249 14.1436C62.1641 14.7416 61.2425 16.3728 61.6613 18.3067C61.8149 17.8873 62.1042 17.0564 62.8732 16.1163C63.6423 15.1763 64.4656 14.097 64.87 13.2583C65.2735 12.4115 65.3278 11.7438 65.3278 11.7438L65.4814 11.5498L65.3882 11.1069L65.2561 11.0757H65.2586Z" fill="#CBA94C"/>
<path fill-rule="evenodd" clip-rule="evenodd" d="M80.9865 62.5939C80.9865 62.5939 80.6757 61.7476 80.5825 60.9786C80.4893 60.2095 80.7361 60.057 80.4504 59.1768C80.2794 58.6408 79.9691 58.716 79.8913 58.6408C79.8135 58.5655 79.7592 57.7555 79.7746 57.3126C79.7899 56.8698 79.7592 56.2953 79.6814 56.0465C79.5652 55.9533 79.4874 55.8755 79.3163 55.301C79.1223 54.726 79.0291 54.4388 78.9359 54.2683C78.8427 54.0978 78.5704 53.9421 78.5704 53.7711C78.5704 53.4291 78.8811 53.2509 78.8811 53.1567C78.8658 52.9627 78.6328 53.1183 78.5704 53.0636C78.493 52.9704 78.7649 52.4113 78.6641 52.3334C78.6251 52.295 78.3533 52.6212 78.2831 52.528C78.2053 52.4343 78.1121 51.5101 77.9723 50.8968C77.8408 50.2988 77.7005 49.8641 77.6851 49.6854C77.6698 49.5144 76.613 46.5007 76.357 45.7706C76.1507 45.1537 75.977 44.5263 75.8368 43.8911C75.759 43.526 75.7047 42.78 75.6658 42.8579C75.6269 42.9357 75.6504 43.3161 75.588 43.3007C75.5337 43.2849 75.3396 41.9572 75.2777 41.7473C75.2234 41.5374 74.8968 40.8257 74.8169 40.3107C74.7391 39.79 74.5686 38.4306 74.4518 37.5064C74.3351 36.5823 74.2808 36.2019 74.2808 35.9704C74.2999 35.4044 74.2687 34.8378 74.1876 34.2772C74.034 33.2983 73.7268 32.1099 73.4575 31.4193C72.9373 30.1142 71.5544 26.7744 71.3071 25.9434C71.3071 25.7335 71.579 25.8502 71.579 25.8502C71.579 25.8502 72.2543 27.5434 72.7515 28.848C73.2333 30.1531 73.6915 31.3025 73.8082 31.4193C73.9014 31.5355 74.6315 32.817 74.9577 34.9142C75.2838 37.0113 75.4001 38.9452 75.5946 40.2344C75.6878 40.8488 75.7656 41.5005 75.9597 42.1528C76.1691 42.8599 76.4952 43.59 76.9227 44.7082C77.2878 45.6483 77.5597 46.4326 77.7071 47.1085C77.8781 47.9707 77.8781 48.623 77.979 49.0505C78.0727 49.4156 78.212 50.1452 78.5386 51.2009C78.8653 52.2566 79.346 53.6165 79.6722 54.4628C80.3096 56.156 80.5938 57.5697 80.69 58.3233C80.775 59.1 81.0628 61.7875 80.985 62.5949L80.9865 62.5939Z" fill="#A88F33"/>
<path fill-rule="evenodd" clip-rule="evenodd" d="M65.2974 10.9826L65.2585 11.0757C65.2585 11.0757 65.3747 11.1147 65.3516 11.2703C65.3533 11.4833 65.3403 11.6961 65.3127 11.9072C65.2743 12.1791 65.1965 12.3885 65.1811 12.5595C65.1811 12.9246 65.2354 13.3439 64.7203 14.3848C64.5667 14.672 64.472 14.9204 64.3942 15.0914C64.2001 15.5107 64.1612 15.5732 63.9902 15.7672C64.2621 15.6136 65.241 14.9992 65.7377 15.0914C65.3962 15.2854 64.8755 15.6663 64.5493 16.1635C64.6272 16.1789 64.9533 16.2413 65.4709 16.1635C66.3331 16.0314 67.2962 15.7206 68.1426 15.7826C69.0672 15.8368 68.7022 14.672 68.7022 14.672L67.6352 12.3266L65.6158 10.9058L65.2974 10.9831V10.9826Z" fill="#BE9C44"/>
<path fill-rule="evenodd" clip-rule="evenodd" d="M70.5632 28.5517C70.5632 28.5517 69.6621 27.6506 69.297 24.5581C68.9319 21.4513 69.0098 16.8781 69.0098 16.8781L68.2797 15.0917C68.2797 15.0917 68.1261 13.9034 67.7436 13.461C67.3611 13.0186 66.61 12.2727 66.268 11.9076C65.926 11.5426 65.5379 11.0454 65.3049 10.9676C65.4212 10.7735 65.9419 9.67836 67.9376 9.663C69.9334 9.64764 70.5488 10.7582 70.7572 11.1621C70.9656 11.5661 71.9067 13.3125 72.2558 16.6405C72.582 19.9644 72.5979 20.2133 72.5436 21.3627C72.5047 21.9996 72.2948 23.4752 71.9292 25.0517C71.5954 26.388 71.2303 27.8794 70.5622 28.5548L70.5632 28.5517Z" fill="#A17C34"/>
<path fill-rule="evenodd" clip-rule="evenodd" d="M67.7377 31.2006C68.038 31.2223 68.338 31.1546 68.5999 31.0061C68.8871 30.9907 69.928 31.1228 70.7278 30.1055C70.782 30.3379 70.9223 30.9677 70.5567 31.5268C70.7513 31.3322 71.0385 31.2549 71.0774 31.2006C71.0928 31.4879 71.3647 32.3731 70.2152 34.5245C70.5255 34.183 70.8906 34.1984 71.2167 34.1595C71.2326 34.5635 71.4497 35.9223 70.8752 36.6529C70.4948 37.1501 69.8732 36.9944 69.8732 36.9944C69.8823 36.8859 69.8823 36.7768 69.8732 36.6683C69.8579 36.4584 69.78 36.249 69.8348 36.1092C69.5345 35.972 69.2609 35.7825 69.0269 35.5496C68.3511 34.9126 67.4735 33.8257 67.4115 33.0177C67.3337 32.1166 68.1416 31.9226 68.1416 31.9226C68.074 31.862 68.0163 31.7912 67.9706 31.7126C67.9317 31.5811 67.8928 31.3711 67.7377 31.2006Z" fill="#8C6228"/>
<path fill-rule="evenodd" clip-rule="evenodd" d="M61.7469 21.4293C61.7469 21.4293 61.7079 21.375 61.4985 21.6233C61.5374 21.375 61.5764 21.1416 61.5917 20.9163C61.6908 20.7077 61.8191 20.5143 61.9726 20.3418C61.8559 20.5743 61.7781 20.7842 61.7781 20.7842C61.7781 20.7842 62.0658 20.2481 62.4852 19.922C62.7724 19.689 63.1374 19.5805 63.2926 19.3629C63.4636 19.1299 63.4247 19.091 63.4636 19.0521C63.4636 19.0521 63.8445 18.8038 64.4272 18.0731C64.5045 17.98 64.6212 17.8791 64.699 17.7859C64.8306 17.7316 65.1414 17.5919 65.5065 17.405C65.8874 17.1956 66.3144 16.9083 66.5786 16.7906C67.0988 16.5576 67.6507 16.5812 67.9067 16.2156C68.1008 16.1613 68.3102 15.5787 68.2718 15.082C68.559 15.1983 70.0346 16.1147 70.5399 18.1187C70.905 19.54 70.2522 21.7304 69.9803 22.7871C69.7085 23.8439 69.6701 24.6278 69.2891 25.109C68.8073 25.7465 67.2544 26.645 66.8735 27.09C66.5474 27.455 65.5689 28.3792 65.6073 29.0468C65.6462 29.544 66.2596 29.8148 66.3922 29.909C66.5248 30.0032 66.5238 30.119 66.7727 30.0626C67.0215 30.0063 67.1142 29.8916 67.2155 29.8916C67.3318 29.907 67.3318 29.9305 67.386 29.9305C67.4254 29.9294 67.4645 29.9241 67.5028 29.9147C67.5028 29.9147 67.4638 30.6217 65.8096 30.8363C65.6928 30.8521 65.5766 30.8905 65.4286 30.9141C65.6232 30.8209 65.7394 30.8209 65.9493 30.5337C65.7164 30.4948 65.0482 30.4559 64.8772 30.4016C64.9315 30.3084 65.1102 30.0596 65.2576 29.9433C65.3897 29.8271 65.2423 29.7897 65.1261 29.8502C64.926 29.9863 64.734 30.134 64.5511 30.2925C64.357 30.4635 64.186 30.6965 63.8752 30.9069C63.7821 30.5961 63.7974 30.0058 64.163 29.5788C64.0693 29.5942 63.8906 29.866 63.7201 29.8118C63.6893 29.5285 63.7076 29.242 63.7744 28.9649C63.8676 28.6152 64.3724 28.0018 64.3724 28.0018L66.8111 23.6442L67.3312 20.3433L61.7469 21.4283V21.4293Z" fill="#92723A"/>
<path fill-rule="evenodd" clip-rule="evenodd" d="M61.6158 21.6154C61.6158 21.6154 61.4837 21.7086 61.7479 21.8873C61.709 21.9415 61.6158 22.1356 61.499 22.2677C61.3675 22.4213 61.2272 22.5165 61.1729 22.6486C61.0567 22.9205 60.9635 23.1068 60.9635 23.2236C60.9635 23.3403 60.9246 24.0858 60.5984 24.5671C60.4817 24.7381 60.3496 25.0253 60.2564 25.2193C60.0624 25.5609 59.8914 25.8337 59.8525 25.9873C59.7751 26.2592 59.7209 27.0047 59.7209 27.0047C59.7209 27.0047 59.8919 26.7948 59.9538 26.7175C59.8601 26.9115 59.7593 27.1209 59.6118 27.2766C59.705 27.1987 59.9769 27.0047 60.4351 26.6007C61.072 26.0652 62.0663 25.1641 63.2782 24.4503C62.9127 24.5824 62.6024 24.5824 62.3541 24.6213C62.5481 24.4273 64.2956 22.3767 65.2121 22.1827C65.2677 22.1121 65.2954 22.0235 65.2899 21.9338L64.505 21.8565L62.9127 22.198L62.6802 20.9692L61.6158 21.6138V21.6154Z" fill="#B18E3E"/>
<path fill-rule="evenodd" clip-rule="evenodd" d="M64.1483 28.6059C64.1483 28.6059 63.9383 28.8153 63.7443 29.336C63.5949 29.18 63.4668 29.005 63.3634 28.8153C63.0761 28.3341 62.6338 27.7202 61.6006 28.0699C61.5852 27.7437 61.5616 27.5727 61.6006 27.3398C61.7716 27.3014 62.2918 26.882 62.8119 26.2681C63.1775 25.8488 63.519 25.367 63.752 24.7536C63.9056 24.6369 64.1713 24.4429 64.52 24.2176C65.0171 23.8761 65.6151 23.4096 65.7083 22.8895C65.4754 22.9826 64.9782 23.2156 64.2322 23.1772C64.52 23.0451 64.9623 22.9053 64.9081 22.3304C65.0248 22.2525 65.118 22.1983 65.118 22.1983C65.0304 22.1691 64.9383 22.1559 64.8461 22.1593C64.8303 22.1051 64.8072 22.0278 64.6751 22.0662C64.543 22.1046 64.5215 22.1051 64.5041 22.1593C64.4498 22.1752 64.2711 22.1593 64.139 22.253C64.007 22.3467 63.6419 22.6565 63.5021 22.7108C63.5564 22.6176 63.6337 22.4783 63.6337 22.4783C63.6337 22.4783 63.2533 22.5167 62.9814 22.6319C62.4843 22.8029 61.9098 23.1137 61.3271 23.4163C61.3814 23.3231 61.405 23.2627 61.4434 23.2453C61.4818 23.2279 61.5755 23.2069 61.5755 23.191C61.5755 23.1752 61.5371 23.0374 61.5601 22.9816C61.7343 22.6126 61.9398 22.2592 62.1745 21.9254C62.4464 21.5598 62.5006 21.0396 62.5006 21.0396L63.689 20.4416L67.0288 19.6736L69.1961 19.8057L68.9242 21.3048L67.6442 23.9222L66.549 26.3065L65.2982 27.7673L64.1488 28.6059H64.1483Z" fill="#543E26"/>
<path fill-rule="evenodd" clip-rule="evenodd" d="M69.5615 22.1186C69.5615 22.1186 68.2564 23.734 67.8914 23.9828C68.1243 23.4856 69.5615 20.5263 70.0817 19.703C69.9655 19.6098 69.8098 19.6098 70.1749 18.167C69.8646 18.8966 69.7556 19.2775 69.4996 19.4716C69.2436 19.6656 69.2118 19.6037 69.0388 19.6037C69.0715 19.5446 69.0849 19.4767 69.0772 19.4096C69.0772 19.4096 67.982 19.2775 67.234 19.2775C66.4859 19.2775 65.0052 19.6815 64.1814 20.0076C63.5291 20.2795 63.1641 20.2795 62.9311 20.45C62.6982 20.644 62.5661 20.854 62.4493 20.9082C62.3561 20.9625 61.9138 21.1023 61.8124 21.2497C61.7192 21.4033 61.5641 21.5759 61.5641 21.6148C61.5641 21.6537 61.5252 21.7085 61.6419 21.6691C61.6803 21.6537 61.9681 21.4981 62.2942 21.304C62.7366 21.0557 63.2726 20.7685 63.6612 20.5975C64.7718 20.1546 65.1215 20.2324 65.6181 20.1392C66.1383 20.046 66.8843 19.8284 67.3809 19.8284C67.8781 19.8131 68.8181 19.8284 69.0357 19.8673C68.9425 19.9452 68.8647 20.0384 68.9036 20.3645C68.9036 20.4577 68.8258 20.5585 68.75 20.7838C68.5176 21.4208 68.0747 22.477 67.8284 23.0131C67.4869 23.7427 67.0988 24.3566 66.9068 24.737C66.7148 25.1174 66.2924 26.1194 65.8741 26.6554C65.4558 27.1915 65.2372 27.5176 65.1061 27.6344C64.975 27.7511 64.034 28.4418 64.1041 28.6906C64.2751 28.6364 65.3549 28.2298 66.1388 27.3472C66.9227 26.4645 67.0788 25.9258 67.6922 25.444C68.3056 24.9623 68.7874 24.1548 69.0746 23.4872C69.3153 22.8656 69.261 22.6716 69.5636 22.1201L69.5615 22.1186Z" fill="#806031"/>
<path fill-rule="evenodd" clip-rule="evenodd" d="M41.4371 34.1752C41.4371 34.1752 41.2661 34.8818 40.8775 35.2315C40.4971 35.5735 39.8212 35.8684 39.7439 36.4434C39.6507 37.0178 40.4198 37.3056 40.4198 37.3056C40.4198 37.3056 39.9999 37.9968 39.9999 38.517C39.9999 39.053 39.9846 39.1539 40.0388 39.6664C39.9772 39.706 39.9249 39.7584 39.8852 39.82C39.8852 39.82 39.9236 40.3172 40.3046 40.6274C40.6855 40.9377 41.0111 41.1246 41.2052 41.0468C41.2348 41.1101 41.2608 41.175 41.283 41.2413C41.283 41.2413 41.5707 40.5112 41.7648 39.8743C41.9588 39.222 42.1298 39.3147 42.2071 38.4371C42.2845 37.5595 43.1287 36.0527 43.1287 36.0527L43.7047 34.765L42.7652 34.0349L41.4371 34.1747V34.1752Z" fill="#B6903C"/>
<path fill-rule="evenodd" clip-rule="evenodd" d="M43.1844 35.4404C42.9906 35.6393 42.8118 35.8522 42.6493 36.0774C42.401 36.4194 42.207 36.7296 41.8419 36.8623C41.4769 36.9949 41.2439 36.9938 41.2669 37.3594C41.29 37.725 41.632 37.8796 41.8261 38.066C42.036 38.26 42.207 38.5862 42.1138 38.9517C42.23 38.8975 42.4399 38.835 42.634 38.4157C42.828 37.9963 44.1853 35.4409 44.1853 35.4409H43.1844V35.4404Z" fill="#685026"/>
<path fill-rule="evenodd" clip-rule="evenodd" d="M48.5375 29.5455C48.5375 29.5455 48.6537 29.2353 48.5375 29.01C48.4208 28.777 47.7142 28.6992 47.3645 28.435C46.9995 28.1631 46.5566 27.9742 46.1915 28.0935C46.2458 27.9614 46.4634 27.6737 46.2847 27.6117C46.1137 27.5575 45.4773 27.8447 45.3063 27.9768C45.1353 28.1089 44.7467 28.264 44.6693 28.3577C44.592 28.4514 44.4594 28.6296 44.3816 28.5518C44.3038 28.4975 44.2654 28.3577 44.1333 28.435C44.0012 28.5123 43.3653 29.033 43.248 29.3361C43.1308 29.6392 42.8671 30.3151 42.075 31.0836C41.283 31.8521 40.941 32.3498 41.1739 32.637C41.4069 32.9242 41.5159 32.7148 41.5548 32.9631C41.5848 33.2069 41.5716 33.4541 41.5159 33.6933C41.4227 34.0972 41.2676 34.4776 41.477 34.5555C42.0131 34.7265 42.5338 34.4019 42.65 34.5012C42.883 34.7106 42.5179 35.4643 43.0693 35.6117C43.629 35.7653 44.1804 35.4796 44.1804 35.4796L46.2151 34.3845L48.1724 33.3518L49.1739 31.3708L48.6368 29.7166L48.5344 29.5455H48.5375Z" fill="#D4B968"/>
<path fill-rule="evenodd" clip-rule="evenodd" d="M46.6174 34.2759C46.6174 34.2759 46.2754 33.7557 46.6952 33.2969C47.1151 32.8382 47.7126 32.6446 47.9455 32.3574C47.9012 32.3027 47.8417 32.2623 47.7745 32.2412C47.9292 31.9645 48.1651 31.742 48.4504 31.6037C48.3341 31.4875 48.1785 31.3943 48.008 31.3943C47.6271 31.3943 47.3936 31.6273 47.0444 31.6273C46.7029 31.6273 46.664 31.4563 46.664 31.4563C46.664 31.4563 47.239 31.402 47.1842 31.1455C47.1299 30.8736 47.0306 30.8736 47.0306 30.8736C47.0306 30.8736 48.1411 30.4128 48.3352 30.1671C48.5292 29.9213 48.5062 29.631 48.5451 29.5148C48.6767 29.5148 49.4457 29.1108 49.7565 29.2818C50.0673 29.4528 49.8497 29.9188 49.8497 29.9188C49.8497 29.9188 50.7902 29.2117 51.2694 28.5184C51.6888 28.5573 51.8838 28.2312 52.191 28.2312C52.572 28.2312 53.17 28.7514 53.2862 29.8619C53.364 30.4988 53.4803 30.8639 53.364 31.9903C53.3098 32.6272 53.3251 33.9871 53.5176 34.6619C53.6492 35.198 53.96 35.1437 53.96 35.1437C53.9123 35.3071 53.8178 35.4528 53.6881 35.563C53.4782 35.7571 53.4552 36.2701 53.4782 36.4642C53.5092 36.606 53.5481 36.746 53.5949 36.8835C53.5949 36.8835 53.3466 37.1707 53.2842 37.3653C53.2299 37.5593 52.9739 37.6914 52.787 37.6914C52.6001 37.6914 52.6938 37.6756 52.4455 37.6914C52.1972 37.7073 52.1194 37.7457 51.9637 37.6914C51.8081 37.6372 51.6918 37.5747 51.7543 37.077C51.8086 36.5799 49.8358 35.4228 49.8358 35.4228L46.6102 34.2733L46.6174 34.2759Z" fill="#CCA849"/>
<path fill-rule="evenodd" clip-rule="evenodd" d="M42.913 39.1842C42.913 39.1842 43.6195 40.1243 46.5246 40.1243C47.907 40.1243 48.3888 39.9922 48.675 39.9144C48.9858 39.8365 50.1506 39.3788 51.3236 37.9959C52.3798 36.7456 52.1469 36.2331 52.1469 36.2331L51.5325 36.1399L49.5357 36.4118L43.6272 38.9282L42.9104 39.1842H42.913Z" fill="#585136"/>
<path fill-rule="evenodd" clip-rule="evenodd" d="M45.0797 39.4176C45.0797 39.4176 42.5632 39.9772 42.5632 38.3849C42.5632 36.8314 44.1166 35.2002 44.5052 34.913C44.9092 34.6252 45.8723 34.2986 45.8723 34.2986H48.1947L48.6371 35.4716L48.443 38.0034L45.0797 39.417V39.4176Z" fill="#252211"/>
<path fill-rule="evenodd" clip-rule="evenodd" d="M47.4019 34.7731C47.4019 34.7731 46.9206 34.3303 45.8254 34.9267C44.7303 35.5232 43.8445 36.7699 43.7902 37.902C43.736 38.9034 44.6135 39.6494 45.9806 39.6883C46.9979 39.7267 47.6118 39.6105 47.9226 39.5347C47.8448 39.4416 47.4408 38.9367 47.4408 38.9367L47.4024 34.7737L47.4019 34.7731Z" fill="#C3B378"/>
<path fill-rule="evenodd" clip-rule="evenodd" d="M46.9283 35.0206C46.9283 35.0206 46.8121 34.9274 46.4675 35.1138C46.1803 35.2674 45.761 35.6734 45.4348 35.9606C45.2249 36.1316 45.0928 36.209 44.974 36.3411C44.4922 36.916 44.0883 37.8561 44.3217 38.322C44.5552 38.7879 45.3237 39.324 47.2811 38.9589L46.9227 35.0211L46.9283 35.0206Z" fill="#E6D89C"/>
<path fill-rule="evenodd" clip-rule="evenodd" d="M46.2914 35.984C46.2914 35.984 45.9806 36.4658 45.9806 37.2348C45.9806 38.0192 46.4235 39.2695 48.0547 39.3626C49.305 39.4405 50.1436 37.5609 51.0524 36.8308C51.7436 36.2717 52.163 36.2558 52.163 36.2558C52.163 36.2558 51.4564 35.4878 49.5692 34.493C47.705 33.491 45.6155 33.3589 44.4814 34.897C45.0175 34.8581 46.7496 34.4152 46.7496 34.4152L47.5965 34.6871L46.2914 35.9845V35.984Z" fill="#252211"/>
<path fill-rule="evenodd" clip-rule="evenodd" d="M48.7298 37.0021C48.6755 36.8858 48.6366 36.7302 48.8619 36.6918C49.0872 36.6534 49.188 36.6759 49.2659 36.8454C49.3437 37.0149 49.4195 37.1562 49.3043 37.2263C49.188 37.2883 48.8849 37.2263 48.7293 37.001L48.7298 37.0021ZM48.3647 35.9069C48.3647 35.9069 48.2869 35.9612 48.3258 35.8526C48.3412 35.721 48.4426 35.4876 48.6909 35.5424C48.9392 35.5971 48.8855 35.8685 48.8445 35.9463C48.8035 36.0242 48.5962 36.1557 48.4405 36.0999C48.4208 36.0949 48.4025 36.0853 48.3872 36.0718C48.3719 36.0584 48.36 36.0416 48.3524 36.0226C48.3448 36.0037 48.3418 35.9833 48.3436 35.963C48.3454 35.9427 48.3519 35.9232 48.3627 35.9059L48.3647 35.9069Z" fill="#6F674D"/>
<path fill-rule="evenodd" clip-rule="evenodd" d="M27.3406 36.4031C27.3406 36.4031 27.955 36.8639 28.6687 36.846C29.3753 36.8301 30.2841 36.1005 30.7034 35.6341C30.9517 35.3622 31.1642 35.075 31.3946 34.8497C31.5892 34.6556 31.7207 34.5624 31.8139 34.4303C31.946 34.2767 32.0858 33.988 32.1559 33.8943C31.9849 34.0264 31.7366 34.2599 31.4801 34.415C31.2318 34.5686 30.6957 34.8574 30.4781 34.9352C30.2687 35.013 28.0937 36.164 28.0937 36.164L27.3406 36.4031Z" fill="#AC924C"/>
<path fill-rule="evenodd" clip-rule="evenodd" d="M28.2803 30.6645C28.2803 30.6645 28.6218 30.4316 29.2823 30.2836C29.9192 30.13 31.2007 30.0117 31.2007 30.0117L32.257 30.4725L32.6763 32.0648L31.9083 33.7196L30.9299 34.334L29.8188 32.5477L28.2828 30.6676L28.2803 30.6645Z" fill="#9F8E57"/>
<path fill-rule="evenodd" clip-rule="evenodd" d="M26.8976 32.0858L26.532 32.3587C26.532 32.3587 26.6257 32.1877 26.703 31.6675C26.7803 31.1473 27.1848 29.8811 27.7751 29.151C28.3655 28.4209 28.3501 28.4598 28.3501 28.4598C28.2958 28.4498 28.24 28.4516 28.1864 28.4649C28.1328 28.4783 28.0826 28.5029 28.0393 28.5371C28.1171 28.3651 28.6143 27.7507 29.1114 27.4435C29.6086 27.1363 29.8026 27.0395 30.3228 27.2899C30.843 27.5402 30.9751 27.6703 31.356 27.6549C31.737 27.6396 32.0626 27.2356 32.0626 27.2356C32.0626 27.2356 32.1404 27.4839 31.8532 28.0589C31.566 28.6339 30.4319 29.8063 30.4319 29.8063L28.0705 31.4217L26.8976 32.0873V32.0858Z" fill="#EAC970"/>
<path fill-rule="evenodd" clip-rule="evenodd" d="M28.6441 30.4702C28.6441 30.4702 30.3532 30.7032 30.8734 30.2219C30.8887 30.2761 30.9512 30.2761 30.9512 30.3151C30.947 30.3444 30.9334 30.3715 30.9123 30.3924C30.9689 30.3833 31.026 30.3782 31.0833 30.377C31.1517 30.3974 31.2221 30.4104 31.2932 30.4159C31.3505 30.4147 31.4077 30.4094 31.4642 30.4C31.4588 30.4387 31.4457 30.4758 31.4257 30.5092C31.4056 30.5426 31.379 30.5717 31.3475 30.5946C31.4253 30.5946 31.5011 30.61 31.5011 30.6719C31.5011 30.7339 31.5165 30.9208 31.4233 30.9597C31.3461 30.981 31.2639 30.9754 31.1903 30.9438C31.1965 31.0908 31.2364 31.2345 31.307 31.3636C31.4606 31.6509 31.7883 31.978 32.2286 31.8838C32.2286 31.8838 32.4611 32.4429 31.4827 33.6856C31.3511 33.8566 31.2108 34.0895 31.0403 34.2836C30.9729 34.4304 30.9214 34.584 30.8867 34.7418C30.8867 34.7418 32.5415 34.1049 33.0151 32.6523C33.4969 31.1921 33.5901 29.7554 33.4969 28.412C33.481 28.031 33.4191 27.7597 33.3259 27.5651C33.0929 27.0833 32.4401 27.1611 32.1764 27.433C31.7955 27.8139 31.1586 28.7611 30.2733 29.4134C29.3722 30.0657 29.3338 30.1814 28.6421 30.4702H28.6441Z" fill="#D7BC6B"/>
<path fill-rule="evenodd" clip-rule="evenodd" d="M26.5947 32.5674C26.5947 32.5674 26.2685 32.7615 26.0975 33.489C25.9265 34.2345 26.2511 35.1433 26.439 35.4305C26.6269 35.7178 27.0534 36.5027 27.9382 36.5416C28.1571 36.5404 28.3737 36.4955 28.5751 36.4095C28.8839 36.2679 29.1736 36.0878 29.4373 35.8734C29.8182 35.5862 30.1285 35.3379 30.0896 35.3143C29.9964 35.2754 27.7441 33.4112 27.7441 33.4112L26.8973 32.4661L26.5942 32.5685L26.5947 32.5674Z" fill="#585136"/>
<path fill-rule="evenodd" clip-rule="evenodd" d="M28.7235 35.6579C28.7235 35.6579 29.1818 35.6195 29.4537 35.4485C29.7255 35.2775 27.8613 33.4292 27.8613 33.4292L27.9934 35.426L28.7235 35.6579Z" fill="#453A25"/>
<path fill-rule="evenodd" clip-rule="evenodd" d="M26.7419 32.4272C26.7419 32.4272 26.5089 32.87 26.5089 32.9868C26.47 33.3672 26.5867 34.5632 26.6799 34.9436C26.7731 35.3476 27.2779 35.961 27.9307 35.961C28.3342 35.961 28.8938 35.7127 28.8938 35.6507C28.8938 35.5729 28.3188 35.4971 28.1637 35.2078C28.0705 35.0542 28.0316 34.6723 28.0101 34.2862C27.9947 34.0379 27.9947 33.766 28.0879 33.6718C28.2978 33.4389 28.3362 32.7707 28.3362 32.7707L29.0817 31.3857H28.1012L26.9282 32.1159L26.7419 32.4272Z" fill="#84754B"/>
<path fill-rule="evenodd" clip-rule="evenodd" d="M26.4543 32.8542C26.4543 32.8542 27.2223 31.8369 27.9146 31.6034C28.6068 31.3699 28.9166 31.5102 28.9166 31.5102L28.5126 32.5434L27.9376 33.1804L27.9765 33.5065C27.9765 33.5065 27.8828 34.3687 28.4578 34.9667C29.0328 35.5648 29.4598 35.5417 29.7086 35.5417C29.9575 35.5417 30.6717 35.3318 31.0367 34.4696C31.3629 33.6622 31.6348 32.6264 30.9825 31.588C30.345 30.5548 29.2191 30.5149 29.0015 30.5149C28.7839 30.5149 27.0754 30.6004 26.4543 32.8527V32.8542Z" fill="#252211"/>
<path fill-rule="evenodd" clip-rule="evenodd" d="M46.1747 36.3106C45.8875 36.1785 46.1594 35.3711 46.4466 35.1222C46.7338 34.8734 47.0989 34.5867 47.7363 34.5472C47.9688 34.5319 48.1941 34.6793 48.1557 34.835C48.1014 35.1222 47.6974 35.5262 47.3324 35.8134C46.8275 36.2097 46.5009 36.458 46.1747 36.3106Z" fill="#F7F7E7"/>
<path fill-rule="evenodd" clip-rule="evenodd" d="M30.6407 31.9067C30.8506 31.8914 31.1225 32.0603 31.1768 32.2877C31.231 32.536 31.0447 33.0331 30.6407 33.0331C30.3146 33.0331 30.1436 32.6292 30.1436 32.5129C30.1472 32.4174 30.1739 32.3241 30.2214 32.2411C30.2367 32.2175 30.2757 31.9456 30.6407 31.9067Z" fill="#F8F6DE"/>
<path fill-rule="evenodd" clip-rule="evenodd" d="M27.6114 32.0852C27.6114 32.0852 27.0754 32.3335 26.8271 32.8532C26.6496 33.237 26.5959 33.6664 26.6735 34.082C26.7124 34.2761 26.9064 34.7573 27.0385 34.9283C27.1706 35.0994 27.3493 35.2161 27.4814 35.2002C27.6135 35.1843 27.8849 34.8352 27.8849 34.6257C27.8849 34.4163 27.9007 33.5306 28.1567 33.0488C28.382 32.5675 27.613 32.0857 27.613 32.0857L27.6114 32.0852Z" fill="#D4C38B"/>
<path fill-rule="evenodd" clip-rule="evenodd" d="M27.6891 32.0463C27.5959 32.1005 27.4407 32.1784 27.4791 32.2792C27.518 32.3724 27.8442 32.4328 27.9609 32.6602C28.093 32.8931 28.093 33.1414 28.0541 33.2582C28.1556 33.21 28.2476 33.1441 28.326 33.0636C28.497 32.8696 28.7064 32.6059 28.8851 32.6059C29.0018 32.6059 29.118 32.6602 29.2271 32.6602C29.3981 32.6602 29.5686 32.6059 29.5922 32.4272C29.6306 32.1942 29.266 31.9843 29.0561 32.0232C29.095 31.8696 29.1493 31.6428 28.9783 31.4872C28.8073 31.3315 28.2717 31.6039 28.155 31.6817C28.0382 31.7595 27.6891 32.0468 27.6891 32.0468V32.0463Z" fill="#E2D59D"/>
<path fill-rule="evenodd" clip-rule="evenodd" d="M40.0315 48.3651L41.1809 48.0256L41.507 48.2586C41.507 48.2586 41.7395 48.7557 42.1051 48.8177C41.9883 49.066 41.6852 49.2785 41.7011 49.4546C41.717 49.6308 41.8721 49.7654 41.8721 49.7654C41.8721 49.7654 40.8389 51.474 42.8741 53.1958C42.3923 53.3899 41.7789 53.6566 41.4528 53.8102C41.6852 53.8645 42.1824 53.9638 42.3923 54.1522C42.6022 54.3406 42.6022 54.4006 42.7963 54.5173C42.9903 54.634 43.1065 54.7892 43.0681 54.8588C42.936 54.781 42.4931 54.5485 42.4158 54.7656C42.3385 54.9827 40.4974 54.8977 40.4974 54.8977L37.3906 55.4957C37.3906 55.4957 37.5068 55.1849 37.1806 54.8977C36.8002 54.5562 36.3343 54.9131 35.8372 54.5326C35.1849 54.0355 35.1613 53.4605 34.9519 53.2434C35.1613 53.1113 35.5888 52.9173 36.6062 52.7826C36.5673 52.7048 36.4352 52.4718 36.513 52.2624C36.6062 51.9906 36.9943 51.8196 36.878 51.4944C37.0491 51.4555 37.1264 51.4555 37.5539 50.9195C37.9579 50.3834 38.2062 50.2672 38.517 50.2283C38.8277 50.1893 39.0141 50.2283 39.5891 49.6922C39.9925 49.3118 39.861 48.9856 39.861 48.9856C39.861 48.9856 40.1246 48.9001 40.032 48.3641L40.0315 48.3651Z" fill="#CBAC5A"/>
<path fill-rule="evenodd" clip-rule="evenodd" d="M36.6375 48.5372C36.6529 48.4594 36.7154 48.4204 37.1347 48.4594C37.554 48.4983 40.2103 48.211 40.9327 48.1721C41.6628 48.1179 44.2336 48.1563 45.4844 48.4204C46.7352 48.6846 48.0009 48.9954 48.6142 49.1506C49.2286 49.3216 49.4222 49.383 49.3986 49.4608C49.3833 49.5387 49.245 49.6144 49.1657 49.5929C49.0884 49.5776 47.0532 48.956 46.4244 48.8249C45.7957 48.6939 43.6202 48.3431 42.4308 48.3641C41.3203 48.38 40.8774 48.3488 39.9379 48.4573C38.9979 48.574 37.4445 48.7292 36.9785 48.6672C36.5177 48.613 36.613 48.613 36.6365 48.5351L36.6375 48.5372Z" fill="#D6BC6F"/>
<path fill-rule="evenodd" clip-rule="evenodd" d="M42.8888 54.6252C42.8888 54.6252 44.4811 55.4874 45.0561 56.5437C45.4754 57.3281 44.8078 57.7167 44.8078 57.7167C44.8078 57.7167 45.7089 57.7167 45.5922 58.2138C45.5379 58.5241 44.0388 59.3628 43.0368 59.8057C42.0194 60.2485 42.0583 60.2255 41.5612 60.3028C41.0794 60.3806 39.759 60.1492 39.4871 60.5358C39.2152 60.9223 39.3335 61.3207 39.4093 61.3826C39.4871 61.4369 40.1163 61.5147 40.1163 61.5147C40.1163 61.5147 39.9842 61.8798 38.6797 61.9187C37.3751 61.9576 37.0484 62.0503 36.9706 62.1906C36.8928 62.3221 37.2189 62.2448 37.8174 62.3442C38.4155 62.4373 39.2541 62.4978 39.2541 62.4978C39.2541 62.4978 38.9822 62.7307 38.2757 62.9171C37.4678 63.1265 36.2016 63.321 35.8212 63.554C36.0152 63.6861 36.303 63.8801 36.4356 63.8955C36.1094 63.9733 35.6507 64.1443 35.5734 64.2063C35.6896 64.2841 35.8452 64.3773 35.8452 64.3773C35.8452 64.3773 35.1924 65.1617 34.812 65.3562C34.4316 65.5508 32.2413 66.5676 31.4876 66.3736C29.608 65.8764 29.3751 63.8182 28.9168 63.6631C28.2256 63.4301 27.8995 63.8955 27.2856 63.5694C27.5575 63.3753 27.7054 63.2591 27.9927 63.127C27.6819 62.9734 26.0742 61.954 26.0742 61.954C25.9061 61.5876 25.7195 61.2299 25.5151 60.8824C25.2043 60.3463 24.7471 59.6316 24.4041 59.0023C23.6586 57.6199 23.6197 56.983 22.9438 56.1986C23.0606 56.045 23.464 56.0665 23.464 56.0665L29.1268 57.9307L39.1676 58.2215L41.7788 54.4937L42.8893 54.6258L42.8888 54.6252Z" fill="#DFC677"/>
<path fill-rule="evenodd" clip-rule="evenodd" d="M28.0159 60.3104C28.0765 60.3778 28.1471 60.4355 28.2253 60.4814C28.4198 60.6135 28.7071 60.7692 28.9011 61.0016C28.9789 60.8854 29.173 60.6755 29.5155 61.0016C29.858 61.3278 30.2835 61.0953 30.5482 61.1726C30.8201 61.2663 30.8355 61.3047 30.8355 61.3047C30.8355 61.3047 30.9891 61.1726 31.3326 61.0328C31.5425 60.955 31.7908 60.9007 32.0627 60.8234C32.311 60.7692 32.5829 60.6913 32.7698 60.6913C32.9408 60.8076 33.5542 61.4593 36.0164 60.4973C38.3388 59.5962 38.8744 59.4953 39.263 59.6346C39.3019 59.5414 39.3408 59.3627 39.9388 59.3863C39.9388 59.1379 39.4417 58.2911 39.4417 58.2911L36.6999 57.3516H35.2003L30.7034 58.1749L28.2115 59.5967L28.0174 60.3135L28.0159 60.3104Z" fill="#C4A859"/>
<path fill-rule="evenodd" clip-rule="evenodd" d="M26.5166 58.7339C26.5166 58.7339 26.5709 59.1532 27.1924 59.5961C27.8068 60.0385 27.9999 60.3027 27.9999 60.3027C27.9999 60.3027 28.1166 60.1491 28.2098 59.9924C28.303 59.8214 28.3808 59.6273 28.5359 59.5731C28.8467 59.441 29.5533 59.6893 29.7089 59.6504C29.841 59.612 29.8021 59.3401 29.9419 59.3401C30.268 59.3242 30.4774 59.5495 30.5942 59.5495C30.7109 59.5495 30.9976 59.5342 31.0365 59.4722C31.0754 59.4103 31.0908 58.7651 31.5337 58.4543C32.0155 58.1128 32.6058 58.2603 32.7625 58.3381C32.7625 58.4544 32.7778 58.7421 33.0886 58.7575C33.3994 58.7728 33.4301 58.7185 33.703 58.8117C33.9759 58.9049 34.301 58.7964 34.4485 59.2541C34.5806 59.2157 34.8914 59.1768 34.8136 58.7339C34.9672 58.6177 35.1013 58.5399 35.428 58.0816C35.5058 57.9654 35.6374 57.8333 35.7387 57.6623C36.0106 57.6623 36.3368 57.608 36.7714 57.9884C36.6394 58.0816 36.5615 58.142 36.5231 58.2367C36.6368 58.3493 36.7406 58.4715 36.8334 58.6018C36.9501 58.7554 37.028 58.9438 37.1754 58.9827C37.5016 59.0759 38.0376 58.9438 38.6356 58.9827C39.2106 59.0216 39.6919 59.2311 39.9018 59.3631C39.9796 59.3247 39.9796 59.3089 40.1737 59.3478C40.3677 59.3867 40.5152 59.4021 40.3058 59.1537C40.422 59.208 40.5541 59.3248 40.6708 59.208C40.7876 59.0913 40.8802 58.9208 41.2064 58.8819C41.5325 58.843 41.6493 58.8972 41.7814 58.5557C41.9524 58.1364 41.362 58.1364 41.362 58.1364C41.362 58.1364 41.6339 57.8876 41.937 57.5614C42.3021 57.2199 42.7214 56.777 42.8223 56.2333C42.9933 55.2313 42.0148 55.0997 42.0148 55.0997L37.2691 56.5599L31.4671 56.2722L26.5197 58.7344L26.5166 58.7339Z" fill="#927D49"/>
<path fill-rule="evenodd" clip-rule="evenodd" d="M22.2523 45.0256C22.2523 45.0256 22.0987 45.2197 22.004 45.6779C21.9093 46.1361 21.9497 46.0819 21.8719 46.408C21.7941 46.7342 20.8382 49.9807 21.1966 51.0759C21.555 52.1711 22.1755 52.575 22.5636 53.4603C22.6414 53.6543 22.7172 53.7711 22.7576 53.9421C22.8897 54.5166 22.7735 54.9594 22.9287 55.5344C22.9829 55.7285 23.1232 55.9537 23.3326 56.1867C23.7934 56.668 24.5445 57.1262 24.8686 57.4524C25.3263 57.9341 25.9791 58.9131 26.8101 59.0058C27.253 59.06 27.8823 58.8737 28.4024 58.5634C28.8632 58.2757 29.1479 57.8722 29.6312 57.6418C29.9727 57.4708 30.3378 57.4088 30.6639 57.331C31.3398 57.1989 31.9537 57.1774 32.3187 57.2532C32.8778 57.3699 34.1983 57.7739 34.9299 57.7739C35.5016 57.7647 36.0702 57.6865 36.6231 57.5409C37.7336 57.2148 39.0771 56.6552 39.9629 56.4069C40.4831 56.2533 40.9024 56.2128 41.3299 56.1196C42.06 55.9486 42.6734 55.7157 43.0231 55.2728C42.7902 55.0009 42.5029 54.5816 40.949 54.5969C39.1862 54.6358 37.151 55.6143 36.149 55.7699C35.147 55.9256 34.7123 56.0572 33.5936 55.6532C32.4969 55.2451 32.4606 54.9753 32.4606 54.9753C32.4606 54.9753 31.3091 54.1699 30.8273 52.1168C30.3455 50.0637 30.8273 48.5676 32.0781 47.1458C32.4042 46.7807 32.3264 46.4546 32.3264 46.4546C32.3264 46.4546 33.1497 45.3441 32.9244 44.3042C32.6761 43.271 31.0838 43.4809 31.0838 43.4809L22.2528 45.0256H22.2523Z" fill="#6E6342"/>
<path fill-rule="evenodd" clip-rule="evenodd" d="M23.5808 48.4819C23.5123 48.6107 23.4801 48.7556 23.4876 48.9013C23.503 49.1107 23.5655 49.3825 24.1942 49.9964C24.7303 50.532 24.6135 51.13 24.6135 51.13C24.6135 51.13 24.8833 51.1843 25.6155 50.8417C26.1905 50.5699 26.3835 51.0517 26.3835 51.0517C26.5509 50.9639 26.7323 50.906 26.9196 50.8807C27.0893 50.865 27.2535 50.8126 27.4009 50.7271C27.4009 50.7271 28.0767 51.4183 28.667 51.7444C29.2031 52.0321 29.5139 52.2262 29.7781 52.0321C30.0264 51.8611 30.0264 51.5114 30.0105 51.3563C29.9489 51.2131 29.8709 51.0776 29.7781 50.9523C29.6071 50.704 29.3352 50.4163 29.3173 50.1843C29.2784 49.6488 29.7212 49.0113 29.6275 48.8562C29.5338 48.7011 29.1852 48.6622 28.323 48.9729C27.43 49.2679 23.5772 48.4835 23.5772 48.4835L23.5808 48.4819Z" fill="#39331F"/>
<path fill-rule="evenodd" clip-rule="evenodd" d="M25.6151 51.9533C25.6151 51.9533 25.1728 51.534 25.3279 49.4988C25.5157 49.4961 25.7032 49.5143 25.887 49.5531C25.887 49.5531 26.1282 51.13 25.6151 51.9533Z" fill="#292311"/>
<path fill-rule="evenodd" clip-rule="evenodd" d="M22.4623 43.4721C22.5241 43.4264 22.5813 43.375 22.6334 43.3185C22.4798 43.6057 21.7706 44.7552 22.3456 46.5651C22.9206 48.3668 24.3649 49.7103 26.1436 49.7728C27.9223 49.8352 28.8572 48.9648 29.9263 47.6603C30.3456 47.1401 30.8274 46.4873 31.2544 46.0449C31.8913 45.3532 32.3885 45.1591 32.3885 44.4915C32.3885 43.1244 30.9902 42.5106 28.932 41.8972C26.8737 41.2838 25.0172 41.3596 24.0542 41.7794C23.1146 42.2371 22.7107 42.7189 22.4618 43.4726L22.4623 43.4721Z" fill="#252211"/>
<path fill-rule="evenodd" clip-rule="evenodd" d="M29.0721 52.5668L29.2257 52.489C29.2257 52.489 29.2641 51.8746 29.5129 51.8909C29.7612 51.9299 29.878 52.2565 29.8544 52.3727C29.8391 52.489 29.7771 52.6835 29.5283 52.66C29.2021 52.6677 29.0706 52.5668 29.0706 52.5668H29.0721Z" fill="#3F3824"/>
<path fill-rule="evenodd" clip-rule="evenodd" d="M28.3806 49.9571C28.3806 49.9571 28.5342 49.9028 28.7221 50.0892C28.8757 50.0892 29.5454 50.0113 29.7553 50.1434C29.9653 50.2755 30.0272 50.3917 30.0272 50.3917C30.0272 50.3917 29.2428 50.5628 28.8153 50.3917C28.3806 50.2443 28.3806 49.9571 28.3806 49.9571Z" fill="#2D2815"/>
<path fill-rule="evenodd" clip-rule="evenodd" d="M31.8371 50.0738C31.8371 50.0349 31.4178 49.7477 30.9749 49.654C30.8971 49.6386 30.8812 49.6929 30.8213 49.6929C30.7824 49.6775 30.767 49.5608 30.767 49.5608L30.5151 49.6934C30.5151 49.6934 30.4762 49.7477 30.6083 49.847C30.7245 49.9402 30.9191 50.018 30.9734 50.1731C31.0276 50.3283 31.0276 50.3826 31.0512 50.4061C31.0665 50.4215 31.3384 50.4061 31.4705 50.3283C31.6026 50.2505 31.8514 50.1235 31.8356 50.0723L31.8371 50.0738Z" fill="#82764F"/>
<path fill-rule="evenodd" clip-rule="evenodd" d="M27.9148 51.6505C27.9148 51.6505 27.9921 51.115 28.5128 51.0914C29.0484 51.0525 29.1497 51.5727 29.1497 51.5727L28.839 51.8835C28.839 51.8758 28.606 51.5497 27.9174 51.6505H27.9148Z" fill="#2D2816"/>
<path fill-rule="evenodd" clip-rule="evenodd" d="M31.2935 49.3436C31.2935 49.3436 31.0058 49.6544 30.3693 49.7475C30.3151 49.6697 30.1983 49.5146 30.3693 49.2663C30.5403 49.0179 30.7344 48.9401 30.9284 49.0174C31.0141 49.0313 31.0939 49.0694 31.1586 49.1272C31.2233 49.185 31.2701 49.2601 31.2935 49.3436Z" fill="#574F35"/>
<path fill-rule="evenodd" clip-rule="evenodd" d="M32.4658 49.7244C32.4817 49.6466 32.4274 49.6312 32.4658 49.5923C32.5042 49.5534 32.7146 49.4761 32.7536 49.5145C32.7689 49.5304 32.7536 49.5923 32.7536 49.6681C32.7536 49.7439 32.7536 49.8217 32.7146 49.8775C32.6604 49.9553 32.5052 49.9943 32.4274 49.9712C32.3496 49.9482 32.3342 49.8391 32.3342 49.8176C32.3726 49.8023 32.4658 49.7633 32.4658 49.7244ZM33.7919 48.8858C33.7919 48.8469 33.924 48.769 34.0018 48.769C34.118 48.769 34.118 48.8622 34.1339 48.8858C34.1723 48.9011 34.1723 48.8699 34.2112 48.94C34.2501 49.0102 34.3049 49.1341 34.2655 49.2119C34.2261 49.2897 34.0714 49.3435 34.033 49.3281C33.9788 49.2892 33.8078 48.94 33.7919 48.8858Z" fill="#82764F"/>
<path fill-rule="evenodd" clip-rule="evenodd" d="M31.1221 49.9033C31.1221 49.9033 31.2931 49.9417 31.526 50.1363C31.4482 50.1906 31.3315 50.2525 31.3315 50.2525C31.3315 50.2525 31.3161 50.0738 31.1221 49.9028V49.9033Z" fill="#6E6342"/>
<path fill-rule="evenodd" clip-rule="evenodd" d="M30.7422 48.194C30.7033 48.1556 30.8584 48.0625 30.9516 48.0778C31.0448 48.0932 31.0837 48.1556 31.1846 48.171C31.2855 48.1864 31.3013 48.1321 31.3382 48.0932C31.3751 48.0543 31.5092 48.0778 31.5322 48.0932C31.5466 48.1102 31.5596 48.1284 31.5712 48.1475C31.5728 48.1179 31.5805 48.089 31.5938 48.0626C31.6071 48.0362 31.6257 48.0128 31.6485 47.9939C31.6783 47.972 31.7126 47.9571 31.749 47.9504C31.7853 47.9436 31.8227 47.9452 31.8584 47.9549C31.8737 48.0092 31.9516 48.2033 31.9362 48.2422C31.9208 48.2811 31.6879 48.3359 31.6485 48.2964C31.6874 48.3901 31.8584 48.5842 31.8814 48.6226C31.9045 48.661 31.7104 48.7547 31.6331 48.7393C31.5246 48.7316 30.8564 48.343 30.7402 48.1956L30.7422 48.194ZM31.7596 46.9048C31.7452 46.8657 31.7177 46.8328 31.6817 46.8116C31.6275 46.7963 31.4488 46.8116 31.4488 46.9048C31.4488 46.998 31.6024 47.5192 31.7749 47.7906C31.9695 48.0625 32.1011 48.2872 32.2332 48.3497C32.2746 48.3686 32.3217 48.3711 32.365 48.3566C32.4082 48.3422 32.4443 48.3119 32.4661 48.2719C32.4815 48.233 32.5204 47.9457 32.505 47.2699C32.4897 46.594 32.4661 45.9418 32.4272 45.9028C32.3883 45.8639 32.2332 45.8644 32.1789 45.9418C32.1246 46.0191 31.7749 46.7886 31.7591 46.9048H31.7596Z" fill="#585136"/>
<path fill-rule="evenodd" clip-rule="evenodd" d="M31.068 50.8812C31.068 50.8812 30.7962 50.7102 30.532 50.8269C30.2837 50.9436 30.299 51.4019 30.299 51.4019C30.3549 51.4238 30.4152 51.4317 30.4748 51.4249C30.5345 51.4181 30.5915 51.3968 30.641 51.363C30.812 51.2468 31.0291 51.0527 31.068 50.8817V50.8812Z" fill="#574F35"/>
<path fill-rule="evenodd" clip-rule="evenodd" d="M31.5804 51.4953C31.565 51.3417 31.4268 51.3417 31.4268 51.2624C31.4363 51.2244 31.4583 51.1908 31.4892 51.1669C31.5201 51.1429 31.5581 51.13 31.5973 51.1303C31.6751 51.1303 31.7509 51.2235 31.8461 51.2839C31.9393 51.3382 32.079 51.4375 32.0944 51.5558C32.1098 51.674 31.9408 51.9981 31.7529 51.9981C31.565 51.9981 31.6208 51.6484 31.5819 51.4933L31.5804 51.4953ZM33.0795 51.2854C33.0795 51.2854 32.7687 51.3786 32.7917 51.2854C32.8148 51.1922 32.8854 51.1692 32.9863 51.1692C33.0376 51.1156 33.1065 51.0823 33.1804 51.0755C33.2226 51.0734 33.2641 51.0873 33.2966 51.1144C33.2966 51.1144 33.5065 51.0212 33.5685 51.0755C33.6304 51.1298 33.5843 51.1298 33.6227 51.1922C33.6716 51.2616 33.7037 51.3413 33.7164 51.4252C33.7164 51.4871 33.4835 51.6192 33.2966 51.5962C33.0795 51.5496 33.1179 51.3243 33.0795 51.2854ZM34.8889 50.9357C34.8889 50.9357 34.9821 50.99 34.9048 51.0525C34.8505 51.1067 34.5786 51.2061 34.3452 51.2235C34.1122 51.2235 33.9028 51.2619 33.9028 51.1846C33.9028 51.1072 34.0968 50.9516 34.2131 50.9127C34.2364 50.8835 34.266 50.8599 34.2997 50.8438C34.3334 50.8277 34.3703 50.8194 34.4076 50.8195C34.5008 50.8195 34.8654 50.7806 34.9667 50.7652C35.0599 50.7494 35.1377 50.8036 35.0829 50.8814C35.0599 50.9357 34.8889 50.9357 34.8889 50.9357ZM35.425 48.5375C35.425 48.5375 35.3082 48.7858 35.1766 48.7858C35.0445 48.7705 35.0445 48.7316 35.0445 48.6926C35.0445 48.6384 35.1766 48.4986 35.1608 48.4597C35.1224 48.4597 35.0287 48.4597 35.0445 48.3665C35.0445 48.2887 35.1766 48.1955 35.2929 48.2129C35.3807 48.1407 35.49 48.0998 35.6037 48.0967C35.7358 48.0967 35.852 48.1351 35.852 48.2129C35.852 48.2907 35.6984 48.4612 35.6421 48.5006C35.5801 48.5626 35.5023 48.603 35.425 48.539V48.5375ZM33.654 53.1276C33.654 53.1276 33.5004 53.1435 33.5004 53.2208C33.5004 53.2597 33.5388 53.2597 33.5935 53.2366C33.6251 53.2349 33.6564 53.2295 33.6867 53.2208C33.7021 53.2366 33.7021 53.314 33.8188 53.314C33.9147 53.301 34.0071 53.2694 34.0907 53.2208C34.1839 53.1824 34.2617 53.143 34.2617 53.0672C34.2228 52.9351 34.145 52.8726 34.0287 52.8726C33.9692 52.8688 33.9098 52.8824 33.8577 52.9115C33.8577 52.9115 33.8188 52.8337 33.6867 52.9115C33.5546 52.9894 33.57 52.9893 33.6089 53.0283C33.6785 53.0902 33.6555 53.1307 33.6555 53.1307L33.654 53.1276ZM32.7764 53.9355C32.7764 53.8966 32.9704 53.8188 33.0247 53.8423C33.079 53.8577 33.2341 54.1526 33.2341 54.1838C33.2341 54.2228 33.0401 54.3159 32.9622 54.3159C32.8844 54.3159 32.7528 54.1838 32.7528 54.1623C32.7528 54.147 32.846 54.1239 32.846 54.1081C32.8691 54.0697 32.7764 53.976 32.7764 53.9371V53.9355ZM32.162 52.8014C32.2009 52.7861 32.2009 52.7472 32.2552 52.7083C32.2722 52.697 32.2915 52.6897 32.3118 52.687C32.332 52.6844 32.3526 52.6864 32.3719 52.6929C32.3856 52.6685 32.4046 52.6474 32.4274 52.6312C32.4503 52.615 32.4764 52.6041 32.504 52.5992C32.5972 52.5838 32.675 52.5992 32.6576 52.6381C32.6576 52.7549 32.7354 52.8322 32.7354 52.9253C32.7354 53.0185 32.6812 53.1353 32.4871 53.2131C32.2931 53.2674 32.0289 53.2674 31.99 53.252C31.951 53.2366 31.9121 53.081 31.951 53.0032C31.99 52.9254 32.0985 52.8404 32.161 52.8014H32.162Z" fill="#82764F"/>
<path fill-rule="evenodd" clip-rule="evenodd" d="M32.4094 52.8545C32.4094 52.8545 32.2773 52.9323 32.2773 52.9712C32.2656 53.0088 32.2604 53.0481 32.262 53.0874C32.262 53.1105 32.433 53.0721 32.456 53.0485C32.4637 53.0332 32.4094 52.8949 32.4094 52.8545Z" fill="#6E6342"/>
<path fill-rule="evenodd" clip-rule="evenodd" d="M31.2547 52.4893C31.332 52.5052 31.4641 52.4893 31.565 52.5282C31.6428 52.5672 31.6971 52.645 31.6192 52.7382C31.5414 52.8314 31.4656 52.9711 31.2931 52.9476C31.099 52.9322 30.9127 52.8314 30.9127 52.7535C30.9094 52.7043 30.916 52.6549 30.932 52.6082C30.948 52.5616 30.9731 52.5185 31.0059 52.4817C31.0837 52.4197 31.1221 52.4586 31.2542 52.4893H31.2547Z" fill="#585136"/>
<path fill-rule="evenodd" clip-rule="evenodd" d="M31.1611 52.5674C31.1611 52.5674 30.9128 52.7614 30.8503 52.8551C30.7725 52.9483 30.3921 53.4296 30.2758 53.5305C30.3144 53.4624 30.3584 53.3975 30.4074 53.3364C30.2538 53.4346 30.1387 53.5827 30.0813 53.7557C29.9881 54.0435 30.602 54.1986 31.0054 54.3154C31.4089 54.4321 31.565 54.469 31.565 54.469C31.4165 54.2457 31.289 54.0092 31.1841 53.7624C31.0305 53.3973 30.9512 53.3584 31.052 53.1874C31.1298 53.0164 31.2466 52.9002 31.2466 52.7681C31.2 52.6452 31.1611 52.5674 31.1611 52.5674Z" fill="#574F35"/>
<path fill-rule="evenodd" clip-rule="evenodd" d="M22.3069 53.1806C22.3635 53.1909 22.4214 53.1909 22.4779 53.1806C22.5942 53.1647 23.8061 52.7198 25.0722 52.7996C26.0201 52.8569 26.9596 53.0113 27.876 53.2604C29.4683 53.6798 31.4487 54.5107 32.7302 54.9848C33.0717 55.1164 33.4061 55.3499 33.6518 55.4426C34.6308 55.8235 34.6692 55.8235 35.2441 55.9244C35.92 56.0176 36.6112 55.7923 37.3336 55.6371C38.2189 55.4426 39.7334 55.3494 41.0615 55.1553C41.491 55.0958 41.9146 54.9997 42.3277 54.8681C42.3277 54.8681 41.2714 55.9244 38.7391 56.3048C37.7155 56.4602 36.6753 56.4733 35.6481 56.3437C34.8402 56.2659 34.3046 56.1491 33.9007 56.0329C33.4424 55.9008 32.5024 55.5511 31.3453 55.2649C30.5373 55.055 29.6362 54.8999 28.6035 54.7058C26.0558 54.2394 23.291 53.7038 22.3059 53.1836L22.3069 53.1806Z" fill="#252211"/>
<path fill-rule="evenodd" clip-rule="evenodd" d="M19.4486 48.3809C18.8342 48.9011 18.1824 49.3982 17.546 49.8795L15.6275 51.3535C14.9752 51.8348 14.3383 52.332 13.6855 52.8138C13.0327 53.2955 12.3809 53.7533 11.6887 54.1962C12.3031 53.676 12.9549 53.1942 13.6072 52.7206C14.2595 52.247 14.9358 51.7826 15.5651 51.3023L17.4835 49.8262C18.1435 49.345 18.7804 48.8478 19.4486 48.3819V48.3809ZM16.0545 53.8178C16.0545 53.8178 16.7457 53.2428 17.608 52.4354C18.6796 51.4339 19.9923 50.1519 20.4117 49.9194L16.054 53.8183L16.0545 53.8178Z" fill="#CFB66C"/>
<path fill-rule="evenodd" clip-rule="evenodd" d="M16.054 53.8176C16.396 53.4761 16.761 53.1423 17.1261 52.8156L17.6852 52.3343C17.8562 52.1807 18.0508 52.0082 18.2213 51.8372C18.5628 51.4957 18.8971 51.1301 19.2386 50.7809C19.4079 50.6053 19.5868 50.4393 19.7747 50.2838C19.8686 50.2007 19.9729 50.1301 20.0849 50.0738C20.1786 50.0196 20.2795 49.9202 20.4111 49.9028C20.3338 50.0196 20.2406 50.0738 20.1628 50.1747C20.0696 50.2525 19.9917 50.3457 19.9144 50.423C19.7434 50.594 19.5494 50.7492 19.3784 50.9048C19.0133 51.2156 18.6329 51.5192 18.2678 51.8443C17.9028 52.1695 17.5613 52.5202 17.1957 52.8463C16.7999 53.1807 16.4349 53.5068 16.054 53.8191V53.8176ZM20.6988 50.7108C20.6988 50.7108 18.167 53.1888 17.6463 53.5923L20.6988 50.7108Z" fill="#CFB66C"/>
<path fill-rule="evenodd" clip-rule="evenodd" d="M20.6995 50.7107C20.4718 50.9743 20.2276 51.2233 19.9684 51.4562L19.2004 52.1863C18.9521 52.4346 18.7186 52.6834 18.4549 52.9317C18.183 53.1647 17.9347 53.3926 17.647 53.6076L18.3924 52.8775C18.6413 52.6292 18.9131 52.4198 19.1773 52.1709L19.9228 51.4408C20.1788 51.1848 20.4276 50.936 20.6995 50.7107ZM20.8157 52.0542C20.5824 52.7055 20.3074 53.3412 19.9924 53.9573C19.3402 55.2624 18.3617 56.8931 17.9342 57.7246L20.8157 52.0542Z" fill="#CFB66C"/>
<path fill-rule="evenodd" clip-rule="evenodd" d="M20.8153 52.0547C20.8153 52.3419 20.7374 52.5908 20.6443 52.8391C20.5534 53.0876 20.4499 53.3313 20.334 53.5692C20.2172 53.8021 20.0851 54.051 19.9531 54.2763C19.821 54.5015 19.6658 54.734 19.5491 54.9675L18.7647 56.3498C18.4928 56.8106 18.2286 57.274 17.9414 57.7169C18.1355 57.2197 18.3996 56.7538 18.6485 56.2956C18.9204 55.8348 19.1687 55.374 19.4165 54.8973C19.5375 54.6598 19.6463 54.4163 19.7426 54.1677C19.8588 53.9189 19.9751 53.6859 20.0688 53.4606C20.185 53.2123 20.2782 52.9788 20.3949 52.7541C20.5265 52.5129 20.6355 52.28 20.8142 52.0547H20.8153Z" fill="#CFB66C"/>
<path fill-rule="evenodd" clip-rule="evenodd" d="M23.5804 58.4231C23.5804 58.4231 22.8124 59.4404 22.8892 60.7297C23.0986 60.0543 23.3628 59.0211 23.5804 58.4231ZM24.3105 59.443C24.3105 59.443 24.0386 62.2078 23.8133 63.5672C24.1318 61.9958 24.1938 62.1279 24.3105 59.443ZM29.3977 63.7305C29.3977 63.7305 28.2483 67.1097 28.2247 68.0487C28.4736 67.0831 28.9549 65.1103 29.3977 63.7279V63.7305Z" fill="#DEC270"/>
<path fill-rule="evenodd" clip-rule="evenodd" d="M32.0852 58.2144C32.0852 58.2144 33.9494 61.2899 35.3477 63.915C34.9693 62.594 34.0989 60.1712 32.0852 58.2144Z" fill="#CBAF59"/>
<path fill-rule="evenodd" clip-rule="evenodd" d="M37.0957 62.7418C38.1192 64.5511 39.0422 66.4153 39.8605 68.3262C39.7054 67.0058 39.2855 64.7458 37.0957 62.7418Z" fill="#E3C677"/>
<path fill-rule="evenodd" clip-rule="evenodd" d="M51.8217 67.2769C52.132 67.0829 52.7459 66.0261 53.2819 65.7624C53.8175 65.4906 54.2215 65.4363 54.7032 64.9002C55.1845 64.3406 55.3176 63.9991 56.3729 63.5567C57.849 62.9193 56.8337 62.096 56.8337 62.096C56.9963 61.9363 57.1701 61.7885 57.3539 61.6536C57.7348 61.3664 58.1772 61.0167 58.1388 60.4028C58.0845 59.3701 57.8904 57.871 57.0436 57.0011C57.8669 56.8301 59.4433 56.7138 60.4228 56.4655C61.5564 56.1778 62.0771 55.7738 62.0771 55.7738C62.0771 55.7738 61.4248 54.6633 62.481 53.5451C63.5373 52.4269 64.3995 51.7587 65.0364 50.5079C64.3063 50.4147 63.1932 50.0266 60.3527 51.1059C60.506 51.1781 60.654 51.261 60.7955 51.3542C60.7955 51.3542 59.0481 51.836 58.4111 52.3721C57.3001 53.3116 57.1603 54.0806 55.9566 54.6556C54.7529 55.2306 53.541 55.0749 52.5395 55.5409C51.5381 56.0068 51.3901 56.4031 51.0245 56.5741C51.1023 56.6673 51.0092 56.8224 51.1566 56.9545C51.0634 57.0866 50.5197 57.9718 49.9683 57.9718C50.0225 58.1818 50.4885 58.3369 50.4885 58.3369C50.4885 58.3369 50.147 58.5857 49.2771 58.6477C49.7194 59.1085 50.1393 59.6107 51.2964 60.3409C51.2032 60.5349 50.8146 60.8226 50.9703 61.1877C51.1413 61.5528 51.5846 62.0499 53.3546 62.4539C52.4535 62.4923 51.3978 62.7022 49.9754 62.5082C48.5541 62.3371 48.3212 62.2363 47.4436 62.4539C47.5368 62.5471 47.7851 62.5471 48.0027 62.7954C47.7697 62.8107 46.3095 62.6244 45.8124 63.2772C45.2922 63.9525 45.0669 65.0635 45.1058 65.809C44.8339 65.9411 44.5697 66.1741 44.7018 66.6559C44.8339 67.1377 45.5251 67.2928 45.968 67.5954C46.4104 67.9215 46.4493 68.0378 46.8691 67.9604C47.3115 67.8673 47.9638 67.4249 48.3447 67.4249C48.7256 67.4249 48.997 67.7121 48.997 67.7121C48.997 67.7121 50.0302 67.215 50.1311 67.3082C50.2243 67.4013 50.1464 67.9994 50.2473 68.0925C50.3497 68.1627 51.5135 67.4715 51.8243 67.2769H51.8217Z" fill="#ECD592"/>
<path fill-rule="evenodd" clip-rule="evenodd" d="M74.4006 36.1944C69.5463 23.6586 57.546 21.3362 57.546 21.3362H23.3091L23.4412 34.1049H30.2595V62.6177H23.3086V75.3634H56.5983C64.6214 75.3634 71.0526 67.301 71.0526 67.301C81.3515 52.6839 74.4 36.1944 74.4 36.1944H74.4006ZM56.777 58.7106C56.777 58.7106 54.1658 62.4779 51.3247 62.4779H45.6415L45.5069 34.1362H52.8003C52.8003 34.1362 56.1795 34.8427 58.5403 41.53C58.5403 41.53 61.6702 51.1044 56.777 58.7106Z" fill="white" fill-opacity="0.8"/>
</g>
<defs>
<clipPath id="clip0_22660_2185">
<rect width="96" height="96" fill="white"/>
</clipPath>
</defs>
</svg>
